<svg version="1.1" viewBox="0.0 0.0 960.0 540.0" fill="none" stroke="none" stroke-linecap="square" stroke-miterlimit="10" xmlns:xlink="http://www.w3.org/1999/xlink" xmlns="http://www.w3.org/2000/svg"><clipPath id="g2e688152ac1_0_31.0"><path d="m0 0l960.0 0l0 540.0l-960.0 0l0 -540.0z" clip-rule="nonzero"/></clipPath><g clip-path="url(#g2e688152ac1_0_31.0)"><path fill="#ffffff" d="m0 0l960.0 0l0 540.0l-960.0 0z" fill-rule="evenodd"/><path fill="#d9d2e9" d="m269.64566 47.687805l0 0c0 -3.8617249 3.1305542 -6.9922676 6.992279 -6.9922676l27.968231 0l0 0c1.8544617 0 3.632965 0.7366829 4.944275 2.047989c1.3113098 1.3113022 2.0479736 3.0898132 2.0479736 4.9442787l0 30.42492c0 3.8617172 -3.1305237 6.992264 -6.9922485 6.992264l-27.968231 0c-3.8617249 0 -6.992279 -3.1305466 -6.992279 -6.992264z" fill-rule="evenodd"/><path fill="#000000" d="m286.66153 64.59089l1.875 -0.171875q0.171875 0.9375 0.6875 1.390625q0.515625 0.4375 1.390625 0.4375q0.9375 0 1.40625 -0.390625q0.46875 -0.40625 0.46875 -0.921875q0 -0.34375 -0.203125 -0.578125q-0.1875 -0.234375 -0.6875 -0.4218788q-0.34375 -0.109375 -1.546875 -0.40625q-1.546875 -0.390625 -2.171875 -0.953125q-0.875 -0.78125 -0.875 -1.921875q0 -0.71875 0.40625 -1.359375q0.421875 -0.640625 1.1875 -0.96875q0.78125 -0.328125 1.890625 -0.328125q1.796875 0 2.703125 0.796875q0.90625 0.78125 0.953125 2.09375l-1.921875 0.078125q-0.125 -0.734375 -0.53125 -1.046875q-0.40625 -0.328125 -1.234375 -0.328125q-0.828125 0 -1.3125 0.34375q-0.296875 0.21875 -0.296875 0.59375q0 0.34375 0.28125 0.578125q0.359375 0.3125 1.765625 0.640625q1.40625 0.328125 2.078125 0.6875q0.6875 0.359375 1.0625 0.96875q0.375 0.6093788 0.375 1.5156288q0 0.828125 -0.453125 1.546875q-0.453125 0.703125 -1.296875 1.0625q-0.828125 0.34375 -2.0625 0.34375q-1.8125 0 -2.78125 -0.828125q-0.96875 -0.84375 -1.15625 -2.453125z" fill-rule="nonzero"/><path fill="#fff2cc" d="m375.6063 47.687805l0 0c0 -3.8617249 3.1305542 -6.9922676 6.992279 -6.9922676l27.968231 0l0 0c1.8544617 0 3.632965 0.7366829 4.944275 2.047989c1.3112793 1.3113022 2.0479736 3.0898132 2.0479736 4.9442787l0 30.42492c0 3.8617172 -3.1305542 6.992264 -6.9922485 6.992264l-27.968231 0c-3.8617249 0 -6.992279 -3.1305466 -6.992279 -6.992264z" fill-rule="evenodd"/><path fill="#000000" d="m389.03262 67.700264l0 -9.546879l4.0625 0q1.53125 0 2.21875 0.265625q0.703125 0.25 1.109375 0.90625q0.421875 0.65625 0.421875 1.515625q0 1.0625 -0.640625 1.765625q-0.625 0.703125 -1.875 0.890625q0.625 0.359375 1.03125 0.7968788q0.40625 0.4375 1.09375 1.546875l1.15625 1.859375l-2.296875 0l-1.390625 -2.078125q-0.75 -1.109375 -1.03125 -1.390625q-0.265625 -0.2968788 -0.578125 -0.4062538q-0.296875 -0.109375 -0.953125 -0.109375l-0.390625 0l0 3.9843788l-1.9375 0zm1.9375 -5.500004l1.421875 0q1.390625 0 1.734375 -0.109375q0.34375 -0.125 0.53125 -0.40625q0.203125 -0.296875 0.203125 -0.71875q0 -0.484375 -0.265625 -0.78125q-0.25 -0.296875 -0.71875 -0.375q-0.234375 -0.03125 -1.40625 -0.03125l-1.5 0l0 2.421875zm11.968903 5.500004l-1.828125 0l0 -6.890629q-1.0 0.9375 -2.375 1.390625l0 -1.671875q0.71875 -0.234375 1.5625 -0.875q0.84375 -0.65625 1.15625 -1.53125l1.484375 0l0 9.578129z" fill-rule="nonzero"/><path fill="#fff2cc" d="m438.76642 47.687805l0 0c0 -3.8617249 3.1305237 -6.9922676 6.9922485 -6.9922676l27.968231 0l0 0c1.8544617 0 3.632965 0.7366829 4.944275 2.047989c1.3113098 1.3113022 2.0479736 3.0898132 2.0479736 4.9442787l0 30.42492c0 3.8617172 -3.1305237 6.992264 -6.9922485 6.992264l-27.968231 0c-3.8617249 0 -6.9922485 -3.1305466 -6.9922485 -6.992264z" fill-rule="evenodd"/><path fill="#000000" d="m452.19272 67.700264l0 -9.546879l4.0625 0q1.53125 0 2.21875 0.265625q0.703125 0.25 1.109375 0.90625q0.421875 0.65625 0.421875 1.515625q0 1.0625 -0.640625 1.765625q-0.625 0.703125 -1.875 0.890625q0.625 0.359375 1.03125 0.7968788q0.40625 0.4375 1.09375 1.546875l1.15625 1.859375l-2.296875 0l-1.390625 -2.078125q-0.75 -1.109375 -1.03125 -1.390625q-0.265625 -0.2968788 -0.578125 -0.4062538q-0.296875 -0.109375 -0.953125 -0.109375l-0.390625 0l0 3.9843788l-1.9375 0zm1.9375 -5.500004l1.421875 0q1.390625 0 1.734375 -0.109375q0.34375 -0.125 0.53125 -0.40625q0.203125 -0.296875 0.203125 -0.71875q0 -0.484375 -0.265625 -0.78125q-0.25 -0.296875 -0.71875 -0.375q-0.234375 -0.03125 -1.40625 -0.03125l-1.5 0l0 2.421875zm13.453278 3.7968788l0 1.703125l-6.40625 0q0.109375 -0.96875 0.625 -1.828125q0.53125 -0.859375 2.0625 -2.2812538q1.234375 -1.15625 1.515625 -1.5625q0.375 -0.5625 0.375 -1.125q0 -0.609375 -0.328125 -0.9375q-0.328125 -0.328125 -0.90625 -0.328125q-0.578125 0 -0.921875 0.34375q-0.328125 0.34375 -0.375 1.140625l-1.828125 -0.171875q0.15625 -1.515625 1.015625 -2.171875q0.859375 -0.65625 2.15625 -0.65625q1.40625 0 2.203125 0.765625q0.8125 0.75 0.8125 1.890625q0 0.640625 -0.234375 1.234375q-0.21875 0.578125 -0.71875 1.203125q-0.328125 0.4375 -1.203125 1.2343788q-0.859375 0.78125 -1.09375 1.046875q-0.234375 0.25 -0.375 0.5l3.625 0z" fill-rule="nonzero"/><path fill="#c9daf8" d="m658.6693 47.687805l0 0c0 -3.8617249 3.1305542 -6.9922676 6.9922485 -6.9922676l27.9682 0l0 0c1.8544922 0 3.6329956 0.7366829 4.944275 2.047989c1.3113403 1.3113022 2.0480347 3.0898132 2.0480347 4.9442787l0 30.42492c0 3.8617172 -3.1305542 6.992264 -6.9923096 6.992264l-27.9682 0c-3.8616943 0 -6.9922485 -3.1305466 -6.9922485 -6.992264z" fill-rule="evenodd"/><path fill="#000000" d="m675.6852 64.59089l1.875 -0.171875q0.171875 0.9375 0.6875 1.390625q0.515625 0.4375 1.390625 0.4375q0.9375 0 1.40625 -0.390625q0.46875 -0.40625 0.46875 -0.921875q0 -0.34375 -0.203125 -0.578125q-0.1875 -0.234375 -0.6875 -0.4218788q-0.34375 -0.109375 -1.546875 -0.40625q-1.546875 -0.390625 -2.171875 -0.953125q-0.875 -0.78125 -0.875 -1.921875q0 -0.71875 0.40625 -1.359375q0.421875 -0.640625 1.1875 -0.96875q0.78125 -0.328125 1.890625 -0.328125q1.796875 0 2.703125 0.796875q0.90625 0.78125 0.953125 2.09375l-1.921875 0.078125q-0.125 -0.734375 -0.53125 -1.046875q-0.40625 -0.328125 -1.234375 -0.328125q-0.828125 0 -1.3125 0.34375q-0.296875 0.21875 -0.296875 0.59375q0 0.34375 0.28125 0.578125q0.359375 0.3125 1.765625 0.640625q1.40625 0.328125 2.078125 0.6875q0.6875 0.359375 1.0625 0.96875q0.375 0.6093788 0.375 1.5156288q0 0.828125 -0.453125 1.546875q-0.453125 0.703125 -1.296875 1.0625q-0.828125 0.34375 -2.0625 0.34375q-1.8125 0 -2.78125 -0.828125q-0.96875 -0.84375 -1.15625 -2.453125z" fill-rule="nonzero"/><path fill="#000000" fill-opacity="0.0" d="m417.55905 62.90026l21.196869 0" fill-rule="evenodd"/><path stroke="#000000" stroke-width="2.0" stroke-linejoin="round" stroke-linecap="butt" d="m417.55905 62.90026l21.196869 0" fill-rule="evenodd"/><path fill="#000000" fill-opacity="0.0" d="m480.71915 62.90026l177.95279 0" fill-rule="evenodd"/><path stroke="#000000" stroke-width="1.0" stroke-linejoin="round" stroke-linecap="butt" stroke-dasharray="4.0,3.0" d="m480.71915 62.90026l177.95279 0" fill-rule="evenodd"/><path fill="#d9d2e9" d="m269.64566 143.6878l0 0c0 -3.8617249 3.1305542 -6.992264 6.992279 -6.992264l27.968231 0l0 0c1.8544617 0 3.632965 0.7366791 4.944275 2.047989c1.3113098 1.3112946 2.0479736 3.0898132 2.0479736 4.944275l0 30.424911c0 3.8617249 -3.1305237 6.992264 -6.9922485 6.992264l-27.968231 0c-3.8617249 0 -6.992279 -3.130539 -6.992279 -6.992264z" fill-rule="evenodd"/><path fill="#000000" d="m286.66153 160.59088l1.875 -0.171875q0.171875 0.9375 0.6875 1.390625q0.515625 0.4375 1.390625 0.4375q0.9375 0 1.40625 -0.390625q0.46875 -0.40625 0.46875 -0.921875q0 -0.34375 -0.203125 -0.578125q-0.1875 -0.234375 -0.6875 -0.421875q-0.34375 -0.109375 -1.546875 -0.40625q-1.546875 -0.390625 -2.171875 -0.953125q-0.875 -0.78125 -0.875 -1.921875q0 -0.71875 0.40625 -1.359375q0.421875 -0.640625 1.1875 -0.96875q0.78125 -0.328125 1.890625 -0.328125q1.796875 0 2.703125 0.796875q0.90625 0.78125 0.953125 2.09375l-1.921875 0.078125q-0.125 -0.734375 -0.53125 -1.046875q-0.40625 -0.328125 -1.234375 -0.328125q-0.828125 0 -1.3125 0.34375q-0.296875 0.21875 -0.296875 0.59375q0 0.34375 0.28125 0.578125q0.359375 0.3125 1.765625 0.640625q1.40625 0.328125 2.078125 0.6875q0.6875 0.359375 1.0625 0.96875q0.375 0.609375 0.375 1.515625q0 0.828125 -0.453125 1.546875q-0.453125 0.703125 -1.296875 1.0625q-0.828125 0.34375 -2.0625 0.34375q-1.8125 0 -2.78125 -0.828125q-0.96875 -0.84375 -1.15625 -2.453125z" fill-rule="nonzero"/><path fill="#c9daf8" d="m658.6693 143.6878l0 0c0 -3.8617249 3.1305542 -6.992264 6.9922485 -6.992264l27.9682 0l0 0c1.8544922 0 3.6329956 0.7366791 4.944275 2.047989c1.3113403 1.3112946 2.0480347 3.0898132 2.0480347 4.944275l0 30.424911c0 3.8617249 -3.1305542 6.992264 -6.9923096 6.992264l-27.9682 0c-3.8616943 0 -6.9922485 -3.130539 -6.9922485 -6.992264z" fill-rule="evenodd"/><path fill="#000000" d="m675.6852 160.59088l1.875 -0.171875q0.171875 0.9375 0.6875 1.390625q0.515625 0.4375 1.390625 0.4375q0.9375 0 1.40625 -0.390625q0.46875 -0.40625 0.46875 -0.921875q0 -0.34375 -0.203125 -0.578125q-0.1875 -0.234375 -0.6875 -0.421875q-0.34375 -0.109375 -1.546875 -0.40625q-1.546875 -0.390625 -2.171875 -0.953125q-0.875 -0.78125 -0.875 -1.921875q0 -0.71875 0.40625 -1.359375q0.421875 -0.640625 1.1875 -0.96875q0.78125 -0.328125 1.890625 -0.328125q1.796875 0 2.703125 0.796875q0.90625 0.78125 0.953125 2.09375l-1.921875 0.078125q-0.125 -0.734375 -0.53125 -1.046875q-0.40625 -0.328125 -1.234375 -0.328125q-0.828125 0 -1.3125 0.34375q-0.296875 0.21875 -0.296875 0.59375q0 0.34375 0.28125 0.578125q0.359375 0.3125 1.765625 0.640625q1.40625 0.328125 2.078125 0.6875q0.6875 0.359375 1.0625 0.96875q0.375 0.609375 0.375 1.515625q0 0.828125 -0.453125 1.546875q-0.453125 0.703125 -1.296875 1.0625q-0.828125 0.34375 -2.0625 0.34375q-1.8125 0 -2.78125 -0.828125q-0.96875 -0.84375 -1.15625 -2.453125z" fill-rule="nonzero"/><path fill="#000000" fill-opacity="0.0" d="m290.62204 85.10499l0 51.590553" fill-rule="evenodd"/><path stroke="#595959" stroke-width="1.0" stroke-linejoin="round" stroke-linecap="butt" d="m290.62204 85.10499l0 48.16346" fill-rule="evenodd"/><path fill="#595959" stroke="#595959" stroke-width="1.0" stroke-linecap="butt" d="m290.62204 133.26845l-1.1245728 -1.1245728l1.1245728 3.0897675l1.1246033 -3.0897675z" fill-rule="evenodd"/><path fill="#000000" fill-opacity="0.0" d="m396.58267 85.10499l0 392.34647" fill-rule="evenodd"/><path stroke="#595959" stroke-width="1.0" stroke-linejoin="round" stroke-linecap="butt" d="m396.58267 85.10499l0 388.91937" fill-rule="evenodd"/><path fill="#595959" stroke="#595959" stroke-width="1.0" stroke-linecap="butt" d="m396.58267 474.02435l-1.1245728 -1.1245728l1.1245728 3.0897522l1.1246033 -3.0897522z" fill-rule="evenodd"/><path fill="#000000" fill-opacity="0.0" d="m459.74277 85.10499l0 392.9449" fill-rule="evenodd"/><path stroke="#595959" stroke-width="1.0" stroke-linejoin="round" stroke-linecap="butt" d="m459.74277 85.10499l0 389.5178" fill-rule="evenodd"/><path fill="#595959" stroke="#595959" stroke-width="1.0" stroke-linecap="butt" d="m459.74277 474.62277l-1.1245728 -1.1245728l1.1245728 3.0897522l1.1246033 -3.0897522z" fill-rule="evenodd"/><path fill="#000000" fill-opacity="0.0" d="m679.6457 85.10499l0 51.590553" fill-rule="evenodd"/><path stroke="#595959" stroke-width="1.0" stroke-linejoin="round" stroke-linecap="butt" d="m679.6457 85.10499l0 48.16346" fill-rule="evenodd"/><path fill="#595959" stroke="#595959" stroke-width="1.0" stroke-linecap="butt" d="m679.6457 133.26845l-1.1246338 -1.1245728l1.1246338 3.0897675l1.1245728 -3.0897675z" fill-rule="evenodd"/><path fill="#fff2cc" d="m598.2297 143.6878l0 0c0 -3.8617249 3.1305542 -6.992264 6.9922485 -6.992264l27.9682 0l0 0c1.8544922 0 3.6329956 0.7366791 4.944275 2.047989c1.3113403 1.3112946 2.0480347 3.0898132 2.0480347 4.944275l0 30.424911c0 3.8617249 -3.1305542 6.992264 -6.9923096 6.992264l-27.9682 0c-3.8616943 0 -6.9922485 -3.130539 -6.9922485 -6.992264z" fill-rule="evenodd"/><path fill="#000000" d="m614.60065 158.9815q0 -1.453125 0.4375 -2.4375q0.328125 -0.734375 0.890625 -1.3125q0.5625 -0.578125 1.234375 -0.859375q0.890625 -0.375 2.046875 -0.375q2.109375 0 3.375 1.3125q1.265625 1.296875 1.265625 3.640625q0 2.296875 -1.25 3.609375q-1.25 1.296875 -3.359375 1.296875q-2.125 0 -3.390625 -1.296875q-1.25 -1.296875 -1.25 -3.578125zm1.984375 -0.0625q0 1.625 0.75 2.46875q0.75 0.828125 1.90625 0.828125q1.140625 0 1.875 -0.828125q0.75 -0.828125 0.75 -2.484375q0 -1.640625 -0.71875 -2.453125q-0.71875 -0.8125 -1.90625 -0.8125q-1.203125 0 -1.9375 0.828125q-0.71875 0.8125 -0.71875 2.453125z" fill-rule="nonzero"/><path fill="#000000" fill-opacity="0.0" d="m396.58267 85.10499l222.61417 51.590553" fill-rule="evenodd"/><path stroke="#595959" stroke-width="1.0" stroke-linejoin="round" stroke-linecap="butt" d="m396.58267 85.10499l219.27554 50.81684" fill-rule="evenodd"/><path fill="#595959" stroke="#595959" stroke-width="1.0" stroke-linecap="butt" d="m615.8582 135.92181l-1.3494263 0.84165955l3.263916 -0.39797974l-2.7561035 -1.7931213z" fill-rule="evenodd"/><path fill="#000000" fill-opacity="0.0" d="m459.74277 85.10499l159.46457 51.590553" fill-rule="evenodd"/><path stroke="#595959" stroke-width="1.0" stroke-linejoin="round" stroke-linecap="butt" d="m459.74277 85.10499l156.20389 50.535637" fill-rule="evenodd"/><path fill="#595959" stroke="#595959" stroke-width="1.0" stroke-linecap="butt" d="m615.94666 135.64062l-1.4161377 0.7238159l3.2858887 -0.118896484l-2.593567 -2.0210571z" fill-rule="evenodd"/><path fill="#000000" fill-opacity="0.0" d="m619.20605 181.10498l0 298.4567" fill-rule="evenodd"/><path stroke="#595959" stroke-width="1.0" stroke-linejoin="round" stroke-linecap="butt" d="m619.20605 181.10498l0 295.0296" fill-rule="evenodd"/><path fill="#595959" stroke="#595959" stroke-width="1.0" stroke-linecap="butt" d="m619.20605 476.13458l-1.1245728 -1.1245728l1.1245728 3.0897827l1.1245728 -3.0897827z" fill-rule="evenodd"/><path fill="#000000" fill-opacity="0.0" d="m679.6457 181.10498l-60.44098 298.4567" fill-rule="evenodd"/><path stroke="#595959" stroke-width="1.0" stroke-linejoin="round" stroke-linecap="butt" d="m679.6457 181.10498l-59.760742 295.0978" fill-rule="evenodd"/><path fill="#595959" stroke="#595959" stroke-width="1.0" stroke-linecap="butt" d="m619.88495 476.2028l-0.8790283 -1.3254395l0.48895264 3.2515259l1.7155151 -2.8050842z" fill-rule="evenodd"/><path fill="#000000" fill-opacity="0.0" d="m290.62204 181.10498l0 298.4567" fill-rule="evenodd"/><path stroke="#595959" stroke-width="1.0" stroke-linejoin="round" stroke-linecap="butt" d="m290.62204 181.10498l0 295.0296" fill-rule="evenodd"/><path fill="#595959" stroke="#595959" stroke-width="1.0" stroke-linecap="butt" d="m290.62204 476.13458l-1.1245728 -1.1245728l1.1245728 3.0897827l1.1246033 -3.0897827z" fill-rule="evenodd"/><path fill="#d9d2e9" d="m247.51968 482.84784l0 0c0 -1.81781 1.4736176 -3.2914124 3.2914124 -3.2914124l79.62192 0c0.8729248 0 1.7101135 0.34677124 2.327362 0.9640198c0.61724854 0.61727905 0.9640198 1.4544678 0.9640198 2.3273926l0 13.165222c0 1.8177795 -1.4736023 3.2914124 -3.2913818 3.2914124l-79.62192 0c-1.8177948 0 -3.2914124 -1.4736328 -3.2914124 -3.2914124z" fill-rule="evenodd"/><path fill="#000000" d="m271.16513 487.3242l1.703125 0l0 1.015625q0.328125 -0.53125 0.890625 -0.84375q0.578125 -0.328125 1.265625 -0.328125q1.203125 0 2.03125 0.9375q0.84375 0.9375 0.84375 2.625q0 1.734375 -0.84375 2.703125q-0.84375 0.953125 -2.046875 0.953125q-0.578125 0 -1.046875 -0.21875q-0.453125 -0.234375 -0.96875 -0.796875l0 3.484375l-1.828125 0l0 -9.53125zm1.8125 3.328125q0 1.171875 0.453125 1.734375q0.46875 0.546875 1.125 0.546875q0.640625 0 1.0625 -0.5q0.421875 -0.515625 0.421875 -1.6875q0 -1.078125 -0.4375 -1.609375q-0.4375 -0.53125 -1.078125 -0.53125q-0.671875 0 -1.109375 0.515625q-0.4375 0.515625 -0.4375 1.53125zm8.125732 3.578125l-1.828125 0l0 -6.90625l1.703125 0l0 0.984375q0.4375 -0.703125 0.78125 -0.921875q0.34375 -0.21875 0.796875 -0.21875q0.625 0 1.203125 0.34375l-0.5625 1.59375q-0.46875 -0.296875 -0.859375 -0.296875q-0.390625 0 -0.65625 0.21875q-0.265625 0.203125 -0.421875 0.765625q-0.15625 0.546875 -0.15625 2.296875l0 2.140625zm3.014923 -3.546875q0 -0.921875 0.453125 -1.765625q0.453125 -0.859375 1.265625 -1.296875q0.828125 -0.453125 1.84375 -0.453125q1.5625 0 2.5625 1.015625q1.015625 1.015625 1.015625 2.578125q0 1.5625 -1.015625 2.59375q-1.015625 1.03125 -2.546875 1.03125q-0.953125 0 -1.8125 -0.421875q-0.859375 -0.4375 -1.3125 -1.265625q-0.453125 -0.828125 -0.453125 -2.015625zm1.875 0.09375q0 1.03125 0.484375 1.578125q0.5 0.546875 1.203125 0.546875q0.71875 0 1.203125 -0.546875q0.484375 -0.546875 0.484375 -1.59375q0 -1.015625 -0.484375 -1.5625q-0.484375 -0.546875 -1.203125 -0.546875q-0.703125 0 -1.203125 0.546875q-0.484375 0.546875 -0.484375 1.578125zm5.8913574 -3.453125l1.015625 0l0 -0.53125q0 -0.859375 0.1875 -1.28125q0.1875 -0.4375 0.671875 -0.703125q0.5 -0.28125 1.265625 -0.28125q0.78125 0 1.53125 0.234375l-0.25 1.28125q-0.4375 -0.109375 -0.84375 -0.109375q-0.390625 0 -0.5625 0.1875q-0.171875 0.1875 -0.171875 0.703125l0 0.5l1.359375 0l0 1.4375l-1.359375 0l0 5.46875l-1.828125 0l0 -5.46875l-1.015625 0l0 -1.4375zm5.2352295 -0.9375l0 -1.703125l1.828125 0l0 1.703125l-1.828125 0zm0 7.84375l0 -6.90625l1.828125 0l0 6.90625l-1.828125 0zm3.703003 0l0 -9.546875l1.828125 0l0 9.546875l-1.828125 0zm7.7029724 -2.203125l1.828125 0.3125q-0.34375 1.0 -1.109375 1.53125q-0.765625 0.515625 -1.890625 0.515625q-1.8125 0 -2.671875 -1.171875q-0.6875 -0.953125 -0.6875 -2.390625q0 -1.71875 0.890625 -2.6875q0.90625 -0.96875 2.28125 -0.96875q1.546875 0 2.4375 1.015625q0.890625 1.015625 0.84375 3.125l-4.578125 0q0.015625 0.8125 0.4375 1.265625q0.421875 0.453125 1.0625 0.453125q0.421875 0 0.71875 -0.234375q0.296875 -0.234375 0.4375 -0.765625zm0.109375 -1.84375q-0.015625 -0.796875 -0.40625 -1.203125q-0.390625 -0.421875 -0.953125 -0.421875q-0.59375 0 -0.984375 0.4375q-0.390625 0.4375 -0.390625 1.1875l2.734375 0z" fill-rule="nonzero"/><path fill="#fff2cc" d="m384.94226 482.84784l0 0c0 -1.81781 1.4736023 -3.2914124 3.2914124 -3.2914124l79.62192 0c0.8729248 0 1.7101135 0.34677124 2.327362 0.9640198c0.61724854 0.61727905 0.9640198 1.4544678 0.9640198 2.3273926l0 13.165222c0 1.8177795 -1.4736023 3.2914124 -3.2913818 3.2914124l-79.62192 0c-1.81781 0 -3.2914124 -1.4736328 -3.2914124 -3.2914124z" fill-rule="evenodd"/><path fill="#000000" d="m408.5877 487.3242l1.703125 0l0 1.015625q0.328125 -0.53125 0.890625 -0.84375q0.578125 -0.328125 1.265625 -0.328125q1.203125 0 2.03125 0.9375q0.84375 0.9375 0.84375 2.625q0 1.734375 -0.84375 2.703125q-0.84375 0.953125 -2.046875 0.953125q-0.578125 0 -1.046875 -0.21875q-0.453125 -0.234375 -0.96875 -0.796875l0 3.484375l-1.828125 0l0 -9.53125zm1.8125 3.328125q0 1.171875 0.453125 1.734375q0.46875 0.546875 1.125 0.546875q0.640625 0 1.0625 -0.5q0.421875 -0.515625 0.421875 -1.6875q0 -1.078125 -0.4375 -1.609375q-0.4375 -0.53125 -1.078125 -0.53125q-0.671875 0 -1.109375 0.515625q-0.4375 0.515625 -0.4375 1.53125zm8.125732 3.578125l-1.828125 0l0 -6.90625l1.703125 0l0 0.984375q0.4375 -0.703125 0.78125 -0.921875q0.34375 -0.21875 0.796875 -0.21875q0.625 0 1.203125 0.34375l-0.5625 1.59375q-0.46875 -0.296875 -0.859375 -0.296875q-0.390625 0 -0.65625 0.21875q-0.265625 0.203125 -0.421875 0.765625q-0.15625 0.546875 -0.15625 2.296875l0 2.140625zm3.014923 -3.546875q0 -0.921875 0.453125 -1.765625q0.453125 -0.859375 1.265625 -1.296875q0.828125 -0.453125 1.84375 -0.453125q1.5625 0 2.5625 1.015625q1.015625 1.015625 1.015625 2.578125q0 1.5625 -1.015625 2.59375q-1.015625 1.03125 -2.546875 1.03125q-0.953125 0 -1.8125 -0.421875q-0.859375 -0.4375 -1.3125 -1.265625q-0.453125 -0.828125 -0.453125 -2.015625zm1.875 0.09375q0 1.03125 0.484375 1.578125q0.5 0.546875 1.203125 0.546875q0.71875 0 1.203125 -0.546875q0.484375 -0.546875 0.484375 -1.59375q0 -1.015625 -0.484375 -1.5625q-0.484375 -0.546875 -1.203125 -0.546875q-0.703125 0 -1.203125 0.546875q-0.484375 0.546875 -0.484375 1.578125zm5.8913574 -3.453125l1.015625 0l0 -0.53125q0 -0.859375 0.1875 -1.28125q0.1875 -0.4375 0.671875 -0.703125q0.5 -0.28125 1.265625 -0.28125q0.78125 0 1.53125 0.234375l-0.25 1.28125q-0.4375 -0.109375 -0.84375 -0.109375q-0.390625 0 -0.5625 0.1875q-0.171875 0.1875 -0.171875 0.703125l0 0.5l1.359375 0l0 1.4375l-1.359375 0l0 5.46875l-1.828125 0l0 -5.46875l-1.015625 0l0 -1.4375zm5.2352295 -0.9375l0 -1.703125l1.828125 0l0 1.703125l-1.828125 0zm0 7.84375l0 -6.90625l1.828125 0l0 6.90625l-1.828125 0zm3.703003 0l0 -9.546875l1.828125 0l0 9.546875l-1.828125 0zm7.7029724 -2.203125l1.828125 0.3125q-0.34375 1.0 -1.109375 1.53125q-0.765625 0.515625 -1.890625 0.515625q-1.8125 0 -2.671875 -1.171875q-0.6875 -0.953125 -0.6875 -2.390625q0 -1.71875 0.890625 -2.6875q0.90625 -0.96875 2.28125 -0.96875q1.546875 0 2.4375 1.015625q0.890625 1.015625 0.84375 3.125l-4.578125 0q0.015625 0.8125 0.4375 1.265625q0.421875 0.453125 1.0625 0.453125q0.421875 0 0.71875 -0.234375q0.296875 -0.234375 0.4375 -0.765625zm0.109375 -1.84375q-0.015625 -0.796875 -0.40625 -1.203125q-0.390625 -0.421875 -0.953125 -0.421875q-0.59375 0 -0.984375 0.4375q-0.390625 0.4375 -0.390625 1.1875l2.734375 0z" fill-rule="nonzero"/><path fill="#d9ead3" d="m576.105 482.84784l0 0c0 -1.81781 1.4736328 -3.2914124 3.2913818 -3.2914124l79.62195 0c0.8729248 0 1.710083 0.34677124 2.3273926 0.9640198c0.61724854 0.61727905 0.96398926 1.4544678 0.96398926 2.3273926l0 13.165222c0 1.8177795 -1.4735718 3.2914124 -3.2913818 3.2914124l-79.62195 0c-1.817749 0 -3.2913818 -1.4736328 -3.2913818 -3.2914124z" fill-rule="evenodd"/><path fill="#000000" d="m599.7504 487.3242l1.703125 0l0 1.015625q0.328125 -0.53125 0.890625 -0.84375q0.578125 -0.328125 1.265625 -0.328125q1.203125 0 2.03125 0.9375q0.84375 0.9375 0.84375 2.625q0 1.734375 -0.84375 2.703125q-0.84375 0.953125 -2.046875 0.953125q-0.578125 0 -1.046875 -0.21875q-0.453125 -0.234375 -0.96875 -0.796875l0 3.484375l-1.828125 0l0 -9.53125zm1.8125 3.328125q0 1.171875 0.453125 1.734375q0.46875 0.546875 1.125 0.546875q0.640625 0 1.0625 -0.5q0.421875 -0.515625 0.421875 -1.6875q0 -1.078125 -0.4375 -1.609375q-0.4375 -0.53125 -1.078125 -0.53125q-0.671875 0 -1.109375 0.515625q-0.4375 0.515625 -0.4375 1.53125zm8.125732 3.578125l-1.828125 0l0 -6.90625l1.703125 0l0 0.984375q0.4375 -0.703125 0.78125 -0.921875q0.34375 -0.21875 0.796875 -0.21875q0.625 0 1.203125 0.34375l-0.5625 1.59375q-0.46875 -0.296875 -0.859375 -0.296875q-0.390625 0 -0.65625 0.21875q-0.265625 0.203125 -0.421875 0.765625q-0.15625 0.546875 -0.15625 2.296875l0 2.140625zm3.0148926 -3.546875q0 -0.921875 0.453125 -1.765625q0.453125 -0.859375 1.265625 -1.296875q0.828125 -0.453125 1.84375 -0.453125q1.5625 0 2.5625 1.015625q1.015625 1.015625 1.015625 2.578125q0 1.5625 -1.015625 2.59375q-1.015625 1.03125 -2.546875 1.03125q-0.953125 0 -1.8125 -0.421875q-0.859375 -0.4375 -1.3125 -1.265625q-0.453125 -0.828125 -0.453125 -2.015625zm1.875 0.09375q0 1.03125 0.484375 1.578125q0.5 0.546875 1.203125 0.546875q0.71875 0 1.203125 -0.546875q0.484375 -0.546875 0.484375 -1.59375q0 -1.015625 -0.484375 -1.5625q-0.484375 -0.546875 -1.203125 -0.546875q-0.703125 0 -1.203125 0.546875q-0.484375 0.546875 -0.484375 1.578125zm5.8913574 -3.453125l1.015625 0l0 -0.53125q0 -0.859375 0.1875 -1.28125q0.1875 -0.4375 0.671875 -0.703125q0.5 -0.28125 1.265625 -0.28125q0.78125 0 1.53125 0.234375l-0.25 1.28125q-0.4375 -0.109375 -0.84375 -0.109375q-0.390625 0 -0.5625 0.1875q-0.171875 0.1875 -0.171875 0.703125l0 0.5l1.359375 0l0 1.4375l-1.359375 0l0 5.46875l-1.828125 0l0 -5.46875l-1.015625 0l0 -1.4375zm5.2352905 -0.9375l0 -1.703125l1.828125 0l0 1.703125l-1.828125 0zm0 7.84375l0 -6.90625l1.828125 0l0 6.90625l-1.828125 0zm3.702942 0l0 -9.546875l1.828125 0l0 9.546875l-1.828125 0zm7.703003 -2.203125l1.828125 0.3125q-0.34375 1.0 -1.109375 1.53125q-0.765625 0.515625 -1.890625 0.515625q-1.8125 0 -2.671875 -1.171875q-0.6875 -0.953125 -0.6875 -2.390625q0 -1.71875 0.890625 -2.6875q0.90625 -0.96875 2.28125 -0.96875q1.546875 0 2.4375 1.015625q0.890625 1.015625 0.84375 3.125l-4.578125 0q0.015625 0.8125 0.4375 1.265625q0.421875 0.453125 1.0625 0.453125q0.421875 0 0.71875 -0.234375q0.296875 -0.234375 0.4375 -0.765625zm0.109375 -1.84375q-0.015625 -0.796875 -0.40625 -1.203125q-0.390625 -0.421875 -0.953125 -0.421875q-0.59375 0 -0.984375 0.4375q-0.390625 0.4375 -0.390625 1.1875l2.734375 0z" fill-rule="nonzero"/><path fill="#cccccc" d="m214.53543 103.63523l0 0c0 -1.600357 1.297348 -2.8976974 2.897705 -2.8976974l525.1338 0c0.76849365 0 1.5055542 0.30529022 2.0489502 0.84871674c0.54345703 0.5434189 0.84869385 1.2804642 0.84869385 2.0489807l0 11.590431c0 1.600357 -1.2973022 2.8976974 -2.897644 2.8976974l-525.1338 0c-1.600357 0 -2.897705 -1.2973404 -2.897705 -2.8976974z" fill-rule="evenodd"/><path fill="#000000" d="m430.09766 115.29044l0 -11.453125l4.328125 0q1.140625 0 1.734375 0.109375q0.84375 0.140625 1.40625 0.53125q0.578125 0.390625 0.921875 1.109375q0.359375 0.703125 0.359375 1.5625q0 1.453125 -0.9375 2.46875q-0.921875 1.015625 -3.359375 1.015625l-2.9375 0l0 4.65625l-1.515625 0zm1.515625 -6.015625l2.96875 0q1.46875 0 2.078125 -0.546875q0.625 -0.546875 0.625 -1.53125q0 -0.71875 -0.375 -1.234375q-0.359375 -0.515625 -0.953125 -0.671875q-0.375 -0.109375 -1.40625 -0.109375l-2.9375 0l0 4.09375zm8.96875 6.015625l0 -8.296875l1.265625 0l0 1.25q0.484375 -0.875 0.890625 -1.15625q0.40625 -0.28125 0.90625 -0.28125q0.703125 0 1.4375 0.453125l-0.484375 1.296875q-0.515625 -0.296875 -1.03125 -0.296875q-0.453125 0 -0.828125 0.28125q-0.359375 0.265625 -0.515625 0.765625q-0.234375 0.75 -0.234375 1.640625l0 4.34375l-1.40625 0zm11.015625 -2.671875l1.453125 0.171875q-0.34375 1.28125 -1.28125 1.984375q-0.921875 0.703125 -2.359375 0.703125q-1.828125 0 -2.890625 -1.125q-1.0625 -1.125 -1.0625 -3.140625q0 -2.09375 1.078125 -3.25q1.078125 -1.15625 2.796875 -1.15625q1.65625 0 2.703125 1.140625q1.0625 1.125 1.0625 3.171875q0 0.125 0 0.375l-6.1875 0q0.078125 1.375 0.765625 2.109375q0.703125 0.71875 1.734375 0.71875q0.78125 0 1.328125 -0.40625q0.546875 -0.40625 0.859375 -1.296875zm-4.609375 -2.28125l4.625 0q-0.09375 -1.046875 -0.53125 -1.5625q-0.671875 -0.8125 -1.734375 -0.8125q-0.96875 0 -1.640625 0.65625q-0.65625 0.640625 -0.71875 1.71875zm7.8359375 8.140625l0 -11.484375l1.28125 0l0 1.078125q0.453125 -0.640625 1.015625 -0.953125q0.578125 -0.3125 1.390625 -0.3125q1.0625 0 1.875 0.546875q0.8125 0.546875 1.21875 1.546875q0.421875 0.984375 0.421875 2.171875q0 1.28125 -0.46875 2.296875q-0.453125 1.015625 -1.328125 1.5625q-0.859375 0.546875 -1.828125 0.546875q-0.703125 0 -1.265625 -0.296875q-0.546875 -0.296875 -0.90625 -0.75l0 4.046875l-1.40625 0zm1.265625 -7.296875q0 1.609375 0.640625 2.375q0.65625 0.765625 1.578125 0.765625q0.9375 0 1.609375 -0.796875q0.671875 -0.796875 0.671875 -2.453125q0 -1.59375 -0.65625 -2.375q-0.65625 -0.796875 -1.5625 -0.796875q-0.890625 0 -1.59375 0.84375q-0.6875 0.84375 -0.6875 2.4375zm7.6171875 4.109375l0 -8.296875l1.265625 0l0 1.25q0.484375 -0.875 0.890625 -1.15625q0.40625 -0.28125 0.90625 -0.28125q0.703125 0 1.4375 0.453125l-0.484375 1.296875q-0.515625 -0.296875 -1.03125 -0.296875q-0.453125 0 -0.828125 0.28125q-0.359375 0.265625 -0.515625 0.765625q-0.234375 0.75 -0.234375 1.640625l0 4.34375l-1.40625 0zm4.8125 -4.15625q0 -2.296875 1.28125 -3.40625q1.078125 -0.921875 2.6093445 -0.921875q1.71875 0 2.796875 1.125q1.09375 1.109375 1.09375 3.09375q0 1.59375 -0.484375 2.515625q-0.484375 0.921875 -1.40625 1.4375q-0.90625 0.5 -2.0 0.5q-1.7343445 0 -2.8124695 -1.109375q-1.078125 -1.125 -1.078125 -3.234375zm1.453125 0q0 1.59375 0.6875 2.390625q0.703125 0.796875 1.7499695 0.796875q1.046875 0 1.734375 -0.796875q0.703125 -0.796875 0.703125 -2.4375q0 -1.53125 -0.703125 -2.328125q-0.6875 -0.796875 -1.734375 -0.796875q-1.0468445 0 -1.7499695 0.796875q-0.6875 0.78125 -0.6875 2.375zm13.382782 1.109375l1.390625 0.1875q-0.234375 1.421875 -1.171875 2.234375q-0.921875 0.8125 -2.28125 0.8125q-1.703125 0 -2.75 -1.109375q-1.03125 -1.125 -1.03125 -3.203125q0 -1.34375 0.4375 -2.34375q0.453125 -1.015625 1.359375 -1.515625q0.921875 -0.5 1.984375 -0.5q1.359375 0 2.21875 0.6875q0.859375 0.671875 1.09375 1.9375l-1.359375 0.203125q-0.203125 -0.828125 -0.703125 -1.25q-0.484375 -0.421875 -1.1875 -0.421875q-1.0625 0 -1.734375 0.765625q-0.65625 0.75 -0.65625 2.40625q0 1.671875 0.640625 2.4375q0.640625 0.75 1.671875 0.75q0.828125 0 1.375 -0.5q0.5625 -0.515625 0.703125 -1.578125zm8.265625 0.375l1.453125 0.171875q-0.34375 1.28125 -1.28125 1.984375q-0.921875 0.703125 -2.359375 0.703125q-1.828125 0 -2.890625 -1.125q-1.0625 -1.125 -1.0625 -3.140625q0 -2.09375 1.078125 -3.25q1.078125 -1.15625 2.796875 -1.15625q1.65625 0 2.703125 1.140625q1.0625 1.125 1.0625 3.171875q0 0.125 0 0.375l-6.1875 0q0.078125 1.375 0.765625 2.109375q0.703125 0.71875 1.734375 0.71875q0.78125 0 1.328125 -0.40625q0.546875 -0.40625 0.859375 -1.296875zm-4.609375 -2.28125l4.625 0q-0.09375 -1.046875 -0.53125 -1.5625q-0.671875 -0.8125 -1.734375 -0.8125q-0.96875 0 -1.640625 0.65625q-0.65625 0.640625 -0.71875 1.71875zm7.2734375 2.46875l1.390625 -0.21875q0.109375 0.84375 0.640625 1.296875q0.546875 0.4375 1.5 0.4375q0.96875 0 1.4375 -0.390625q0.46875 -0.40625 0.46875 -0.9375q0 -0.46875 -0.40625 -0.75q-0.296875 -0.1875 -1.4375 -0.46875q-1.546875 -0.390625 -2.15625 -0.671875q-0.59375 -0.296875 -0.90625 -0.796875q-0.296875 -0.5 -0.296875 -1.109375q0 -0.5625 0.25 -1.03125q0.25 -0.46875 0.6875 -0.78125q0.328125 -0.25 0.890625 -0.40625q0.578125 -0.171875 1.21875 -0.171875q0.984375 0 1.71875 0.28125q0.734375 0.28125 1.078125 0.765625q0.359375 0.46875 0.5 1.28125l-1.375 0.1875q-0.09375 -0.640625 -0.546875 -1.0q-0.453125 -0.359375 -1.265625 -0.359375q-0.96875 0 -1.390625 0.328125q-0.40625 0.3125 -0.40625 0.734375q0 0.28125 0.171875 0.5q0.171875 0.21875 0.53125 0.375q0.21875 0.078125 1.25 0.359375q1.484375 0.390625 2.078125 0.65625q0.59375 0.25 0.921875 0.734375q0.34375 0.484375 0.34375 1.203125q0 0.703125 -0.421875 1.328125q-0.40625 0.609375 -1.1875 0.953125q-0.765625 0.34375 -1.734375 0.34375q-1.625 0 -2.46875 -0.671875q-0.84375 -0.671875 -1.078125 -2.0zm8.0 0l1.390625 -0.21875q0.109375 0.84375 0.640625 1.296875q0.546875 0.4375 1.5 0.4375q0.96875 0 1.4375 -0.390625q0.46875 -0.40625 0.46875 -0.9375q0 -0.46875 -0.40625 -0.75q-0.296875 -0.1875 -1.4375 -0.46875q-1.546875 -0.390625 -2.15625 -0.671875q-0.59375 -0.296875 -0.90625 -0.796875q-0.296875 -0.5 -0.296875 -1.109375q0 -0.5625 0.25 -1.03125q0.25 -0.46875 0.6875 -0.78125q0.328125 -0.25 0.890625 -0.40625q0.578125 -0.171875 1.21875 -0.171875q0.984375 0 1.71875 0.28125q0.734375 0.28125 1.078125 0.765625q0.359375 0.46875 0.5 1.28125l-1.375 0.1875q-0.09375 -0.640625 -0.546875 -1.0q-0.453125 -0.359375 -1.265625 -0.359375q-0.96875 0 -1.390625 0.328125q-0.40625 0.3125 -0.40625 0.734375q0 0.28125 0.171875 0.5q0.171875 0.21875 0.53125 0.375q0.21875 0.078125 1.25 0.359375q1.484375 0.390625 2.078125 0.65625q0.59375 0.25 0.921875 0.734375q0.34375 0.484375 0.34375 1.203125q0 0.703125 -0.421875 1.328125q-0.40625 0.609375 -1.1875 0.953125q-0.765625 0.34375 -1.734375 0.34375q-1.625 0 -2.46875 -0.671875q-0.84375 -0.671875 -1.078125 -2.0zm8.5625 -7.359375l0 -1.609375l1.4062805 0l0 1.609375l-1.4062805 0zm0 9.84375l0 -8.296875l1.4062805 0l0 8.296875l-1.4062805 0zm3.554718 0l0 -8.296875l1.265625 0l0 1.171875q0.90625 -1.359375 2.640625 -1.359375q0.75 0 1.375 0.265625q0.625 0.265625 0.9375 0.703125q0.3125 0.4375 0.4375 1.046875q0.078125 0.390625 0.078125 1.359375l0 5.109375l-1.40625 0l0 -5.046875q0 -0.859375 -0.171875 -1.28125q-0.15625 -0.4375 -0.578125 -0.6875q-0.40625 -0.25 -0.96875 -0.25q-0.90625 0 -1.5625 0.578125q-0.640625 0.5625 -0.640625 2.15625l0 4.53125l-1.40625 0zm8.6328125 0.6875l1.375 0.203125q0.078125 0.640625 0.46875 0.921875q0.53125 0.390625 1.4375 0.390625q0.96875 0 1.5 -0.390625q0.53125 -0.390625 0.71875 -1.09375q0.109375 -0.421875 0.109375 -1.8125q-0.921875 1.09375 -2.296875 1.09375q-1.71875 0 -2.65625 -1.234375q-0.9375 -1.234375 -0.9375 -2.96875q0 -1.1875 0.421875 -2.1875q0.4375 -1.0 1.25 -1.546875q0.828125 -0.546875 1.921875 -0.546875q1.46875 0 2.421875 1.1875l0 -1.0l1.296875 0l0 7.171875q0 1.9375 -0.390625 2.75q-0.390625 0.8125 -1.25 1.28125q-0.859375 0.46875 -2.109375 0.46875q-1.484375 0 -2.40625 -0.671875q-0.90625 -0.671875 -0.875 -2.015625zm1.171875 -4.984375q0 1.625 0.640625 2.375q0.65625 0.75 1.625 0.75q0.96875 0 1.625 -0.734375q0.65625 -0.75 0.65625 -2.34375q0 -1.53125 -0.671875 -2.296875q-0.671875 -0.78125 -1.625 -0.78125q-0.9375 0 -1.59375 0.765625q-0.65625 0.765625 -0.65625 2.265625z" fill-rule="nonzero"/><path fill="#cccccc" d="m530.49866 298.70084l0 0c0 -1.6003418 1.2973633 -2.8976746 2.897705 -2.8976746l172.15741 0c0.76849365 0 1.5055542 0.30526733 2.0489502 0.84869385c0.54345703 0.5434265 0.84869385 1.2804871 0.84869385 2.0489807l0 11.590454c0 1.6003418 -1.2973022 2.8976746 -2.897644 2.8976746l-172.15741 0l0 0c-1.6003418 0 -2.897705 -1.2973328 -2.897705 -2.8976746z" fill-rule="evenodd"/><path fill="#000000" d="m583.5141 306.34042l1.515625 0.375q-0.46875 1.875 -1.71875 2.859375q-1.234375 0.984375 -3.015625 0.984375q-1.859375 0 -3.015625 -0.75q-1.15625 -0.765625 -1.765625 -2.1875q-0.609375 -1.4375 -0.609375 -3.078125q0 -1.796875 0.6875 -3.125q0.6875 -1.328125 1.9375 -2.015625q1.265625 -0.703125 2.78125 -0.703125q1.71875 0 2.890625 0.875q1.171875 0.875 1.640625 2.46875l-1.5 0.34375q-0.390625 -1.25 -1.15625 -1.8125q-0.75 -0.578125 -1.90625 -0.578125q-1.3125 0 -2.203125 0.640625q-0.890625 0.625 -1.25 1.703125q-0.359375 1.0625 -0.359375 2.1875q0 1.46875 0.421875 2.5625q0.4375 1.078125 1.328125 1.625q0.90625 0.53125 1.953125 0.53125q1.265625 0 2.140625 -0.734375q0.890625 -0.734375 1.203125 -2.171875zm2.6796875 -0.140625q0 -2.296875 1.28125 -3.40625q1.078125 -0.921875 2.609375 -0.921875q1.71875 0 2.796875 1.125q1.09375 1.109375 1.09375 3.09375q0 1.59375 -0.484375 2.515625q-0.484375 0.921875 -1.40625 1.4375q-0.90625 0.5 -2.0 0.5q-1.734375 0 -2.8125 -1.109375q-1.078125 -1.125 -1.078125 -3.234375zm1.453125 0q0 1.59375 0.6875 2.390625q0.703125 0.796875 1.75 0.796875q1.046875 0 1.734375 -0.796875q0.703125 -0.796875 0.703125 -2.4375q0 -1.53125 -0.703125 -2.328125q-0.6875 -0.796875 -1.734375 -0.796875q-1.046875 0 -1.75 0.796875q-0.6875 0.78125 -0.6875 2.375zm7.9765625 4.15625l0 -8.296875l1.265625 0l0 1.171875q0.90625 -1.359375 2.640625 -1.359375q0.75 0 1.375 0.265625q0.625 0.265625 0.9375 0.703125q0.3125 0.4375 0.4375 1.046875q0.078125 0.390625 0.078125 1.359375l0 5.109375l-1.40625 0l0 -5.046875q0 -0.859375 -0.171875 -1.28125q-0.15625 -0.4375 -0.578125 -0.6875q-0.40625 -0.25 -0.96875 -0.25q-0.90625 0 -1.5625 0.578125q-0.640625 0.5625 -0.640625 2.15625l0 4.53125l-1.40625 0zm14.3046875 -3.046875l1.390625 0.1875q-0.234375 1.421875 -1.171875 2.234375q-0.921875 0.8125 -2.28125 0.8125q-1.703125 0 -2.75 -1.109375q-1.03125 -1.125 -1.03125 -3.203125q0 -1.34375 0.4375 -2.34375q0.453125 -1.015625 1.359375 -1.515625q0.921875 -0.5 1.984375 -0.5q1.359375 0 2.21875 0.6875q0.859375 0.671875 1.09375 1.9375l-1.359375 0.203125q-0.203125 -0.828125 -0.703125 -1.25q-0.484375 -0.421875 -1.1875 -0.421875q-1.0625 0 -1.734375 0.765625q-0.65625 0.75 -0.65625 2.40625q0 1.671875 0.640625 2.4375q0.640625 0.75 1.671875 0.75q0.828125 0 1.375 -0.5q0.5625 -0.515625 0.703125 -1.578125zm8.0 2.015625q-0.78125 0.671875 -1.5 0.953125q-0.71875 0.265625 -1.546875 0.265625q-1.375 0 -2.109375 -0.671875q-0.734375 -0.671875 -0.734375 -1.703125q0 -0.609375 0.28125 -1.109375q0.28125 -0.515625 0.71875 -0.8125q0.453125 -0.3125 1.015625 -0.46875q0.421875 -0.109375 1.25 -0.203125q1.703125 -0.203125 2.515625 -0.484375q0 -0.296875 0 -0.375q0 -0.859375 -0.390625 -1.203125q-0.546875 -0.484375 -1.609375 -0.484375q-0.984375 0 -1.46875 0.359375q-0.46875 0.34375 -0.6875 1.21875l-1.375 -0.1875q0.1875 -0.875 0.609375 -1.421875q0.4375 -0.546875 1.25 -0.828125q0.8125 -0.296875 1.875 -0.296875q1.0625 0 1.71875 0.25q0.671875 0.25 0.984375 0.625q0.3125 0.375 0.4375 0.953125q0.078125 0.359375 0.078125 1.296875l0 1.875q0 1.96875 0.078125 2.484375q0.09375 0.515625 0.359375 1.0l-1.46875 0q-0.21875 -0.4375 -0.28125 -1.03125zm-0.109375 -3.140625q-0.765625 0.3125 -2.296875 0.53125q-0.875 0.125 -1.234375 0.28125q-0.359375 0.15625 -0.5625 0.46875q-0.1875 0.296875 -0.1875 0.65625q0 0.5625 0.421875 0.9375q0.4375 0.375 1.25 0.375q0.8125 0 1.4375 -0.34375q0.640625 -0.359375 0.9375 -0.984375q0.234375 -0.46875 0.234375 -1.40625l0 -0.515625zm6.6640625 2.90625l0.203125 1.25q-0.59375 0.125 -1.0625 0.125q-0.765625 0 -1.1875 -0.234375q-0.421875 -0.25 -0.59375 -0.640625q-0.171875 -0.40625 -0.171875 -1.671875l0 -4.765625l-1.03125 0l0 -1.09375l1.03125 0l0 -2.0625l1.40625 -0.84375l0 2.90625l1.40625 0l0 1.09375l-1.40625 0l0 4.84375q0 0.609375 0.0625 0.78125q0.078125 0.171875 0.25 0.28125q0.171875 0.09375 0.484375 0.09375q0.234375 0 0.609375 -0.0625zm7.0546875 -1.40625l1.453125 0.171875q-0.34375 1.28125 -1.28125 1.984375q-0.921875 0.703125 -2.359375 0.703125q-1.828125 0 -2.890625 -1.125q-1.0625 -1.125 -1.0625 -3.140625q0 -2.09375 1.078125 -3.25q1.078125 -1.15625 2.796875 -1.15625q1.65625 0 2.703125 1.140625q1.0625 1.125 1.0625 3.171875q0 0.125 0 0.375l-6.1875 0q0.078125 1.375 0.765625 2.109375q0.703125 0.71875 1.734375 0.71875q0.78125 0 1.328125 -0.40625q0.546875 -0.40625 0.859375 -1.296875zm-4.609375 -2.28125l4.625 0q-0.09375 -1.046875 -0.53125 -1.5625q-0.671875 -0.8125 -1.734375 -0.8125q-0.96875 0 -1.640625 0.65625q-0.65625 0.640625 -0.71875 1.71875zm7.8359375 4.953125l0 -8.296875l1.265625 0l0 1.171875q0.90625 -1.359375 2.640625 -1.359375q0.75 0 1.375 0.265625q0.625 0.265625 0.9375 0.703125q0.3125 0.4375 0.4375 1.046875q0.078125 0.390625 0.078125 1.359375l0 5.109375l-1.40625 0l0 -5.046875q0 -0.859375 -0.171875 -1.28125q-0.15625 -0.4375 -0.578125 -0.6875q-0.40625 -0.25 -0.96875 -0.25q-0.90625 0 -1.5625 0.578125q-0.640625 0.5625 -0.640625 2.15625l0 4.53125l-1.40625 0zm14.3046875 -1.03125q-0.78125 0.671875 -1.5 0.953125q-0.71875 0.265625 -1.546875 0.265625q-1.375 0 -2.109375 -0.671875q-0.734375 -0.671875 -0.734375 -1.703125q0 -0.609375 0.28125 -1.109375q0.28125 -0.515625 0.71875 -0.8125q0.453125 -0.3125 1.015625 -0.46875q0.421875 -0.109375 1.25 -0.203125q1.703125 -0.203125 2.515625 -0.484375q0 -0.296875 0 -0.375q0 -0.859375 -0.390625 -1.203125q-0.546875 -0.484375 -1.609375 -0.484375q-0.984375 0 -1.46875 0.359375q-0.46875 0.34375 -0.6875 1.21875l-1.375 -0.1875q0.1875 -0.875 0.609375 -1.421875q0.4375 -0.546875 1.25 -0.828125q0.8125 -0.296875 1.875 -0.296875q1.0625 0 1.71875 0.25q0.671875 0.25 0.984375 0.625q0.3125 0.375 0.4375 0.953125q0.078125 0.359375 0.078125 1.296875l0 1.875q0 1.96875 0.078125 2.484375q0.09375 0.515625 0.359375 1.0l-1.46875 0q-0.21875 -0.4375 -0.28125 -1.03125zm-0.109375 -3.140625q-0.765625 0.3125 -2.296875 0.53125q-0.875 0.125 -1.234375 0.28125q-0.359375 0.15625 -0.5625 0.46875q-0.1875 0.296875 -0.1875 0.65625q0 0.5625 0.421875 0.9375q0.4375 0.375 1.25 0.375q0.8125 0 1.4375 -0.34375q0.640625 -0.359375 0.9375 -0.984375q0.234375 -0.46875 0.234375 -1.40625l0 -0.515625zm6.6640625 2.90625l0.203125 1.25q-0.59375 0.125 -1.0625 0.125q-0.765625 0 -1.1875 -0.234375q-0.421875 -0.25 -0.59375 -0.640625q-0.171875 -0.40625 -0.171875 -1.671875l0 -4.765625l-1.03125 0l0 -1.09375l1.03125 0l0 -2.0625l1.40625 -0.84375l0 2.90625l1.40625 0l0 1.09375l-1.40625 0l0 4.84375q0 0.609375 0.0625 0.78125q0.078125 0.171875 0.25 0.28125q0.171875 0.09375 0.484375 0.09375q0.234375 0 0.609375 -0.0625zm7.0546875 -1.40625l1.453125 0.171875q-0.34375 1.28125 -1.28125 1.984375q-0.921875 0.703125 -2.359375 0.703125q-1.828125 0 -2.890625 -1.125q-1.0625 -1.125 -1.0625 -3.140625q0 -2.09375 1.078125 -3.25q1.078125 -1.15625 2.796875 -1.15625q1.65625 0 2.703125 1.140625q1.0625 1.125 1.0625 3.171875q0 0.125 0 0.375l-6.1875 0q0.078125 1.375 0.765625 2.109375q0.703125 0.71875 1.734375 0.71875q0.78125 0 1.328125 -0.40625q0.546875 -0.40625 0.859375 -1.296875zm-4.609375 -2.28125l4.625 0q-0.09375 -1.046875 -0.53125 -1.5625q-0.671875 -0.8125 -1.734375 -0.8125q-0.96875 0 -1.640625 0.65625q-0.65625 0.640625 -0.71875 1.71875z" fill-rule="nonzero"/><path fill="#cccccc" d="m214.53543 367.63522l0 0c0 -1.6003418 1.297348 -2.897705 2.897705 -2.897705l525.1338 0c0.76849365 0 1.5055542 0.30529785 2.0489502 0.84872437c0.54345703 0.5434265 0.84869385 1.2804565 0.84869385 2.0489807l0 11.590454c0 1.6003418 -1.2973022 2.8976746 -2.897644 2.8976746l-525.1338 0c-1.600357 0 -2.897705 -1.2973328 -2.897705 -2.8976746z" fill-rule="evenodd"/><path fill="#000000" d="m371.84375 379.29044l0 -11.453125l3.953125 0q1.328125 0 2.03125 0.15625q0.984375 0.234375 1.6875 0.828125q0.90625 0.765625 1.34375 1.953125q0.453125 1.1875 0.453125 2.71875q0 1.3125 -0.3125 2.328125q-0.296875 1.0 -0.78125 1.65625q-0.46875 0.65625 -1.03125 1.046875q-0.5625 0.375 -1.375 0.578125q-0.796875 0.1875 -1.828125 0.1875l-4.140625 0zm1.515625 -1.359375l2.453125 0q1.125 0 1.765625 -0.203125q0.65625 -0.21875 1.03125 -0.59375q0.546875 -0.546875 0.84375 -1.453125q0.296875 -0.90625 0.296875 -2.203125q0 -1.796875 -0.59375 -2.765625q-0.578125 -0.96875 -1.421875 -1.296875q-0.609375 -0.234375 -1.96875 -0.234375l-2.40625 0l0 8.75zm15.5390625 -1.3125l1.453125 0.171875q-0.34375 1.28125 -1.28125 1.984375q-0.921875 0.703125 -2.359375 0.703125q-1.828125 0 -2.890625 -1.125q-1.0625 -1.125 -1.0625 -3.140625q0 -2.09375 1.078125 -3.25q1.078125 -1.15625 2.796875 -1.15625q1.65625 0 2.703125 1.140625q1.0625 1.125 1.0625 3.171875q0 0.125 0 0.375l-6.1875 0q0.078125 1.375 0.765625 2.109375q0.703125 0.71875 1.734375 0.71875q0.78125 0 1.328125 -0.40625q0.546875 -0.40625 0.859375 -1.296875zm-4.609375 -2.28125l4.625 0q-0.09375 -1.046875 -0.53125 -1.5625q-0.671875 -0.8125 -1.734375 -0.8125q-0.96875 0 -1.640625 0.65625q-0.65625 0.640625 -0.71875 1.71875zm13.2421875 1.90625l1.390625 0.1875q-0.234375 1.421875 -1.171875 2.234375q-0.921875 0.8125 -2.28125 0.8125q-1.703125 0 -2.75 -1.109375q-1.03125 -1.125 -1.03125 -3.203125q0 -1.34375 0.4375 -2.34375q0.453125 -1.015625 1.359375 -1.515625q0.921875 -0.5 1.984375 -0.5q1.359375 0 2.21875 0.6875q0.859375 0.671875 1.09375 1.9375l-1.359375 0.203125q-0.203125 -0.828125 -0.703125 -1.25q-0.484375 -0.421875 -1.1875 -0.421875q-1.0625 0 -1.734375 0.765625q-0.65625 0.75 -0.65625 2.40625q0 1.671875 0.640625 2.4375q0.640625 0.75 1.671875 0.75q0.828125 0 1.375 -0.5q0.5625 -0.515625 0.703125 -1.578125zm2.0625 -1.109375q0 -2.296875 1.28125 -3.40625q1.078125 -0.921875 2.609375 -0.921875q1.71875 0 2.796875 1.125q1.09375 1.109375 1.09375 3.09375q0 1.59375 -0.484375 2.515625q-0.484375 0.921875 -1.40625 1.4375q-0.90625 0.5 -2.0 0.5q-1.734375 0 -2.8125 -1.109375q-1.078125 -1.125 -1.078125 -3.234375zm1.453125 0q0 1.59375 0.6875 2.390625q0.703125 0.796875 1.75 0.796875q1.046875 0 1.734375 -0.796875q0.703125 -0.796875 0.703125 -2.4375q0 -1.53125 -0.703125 -2.328125q-0.6875 -0.796875 -1.734375 -0.796875q-1.046875 0 -1.75 0.796875q-0.6875 0.78125 -0.6875 2.375zm7.9765625 4.15625l0 -8.296875l1.265625 0l0 1.171875q0.90625 -1.359375 2.640625 -1.359375q0.75 0 1.375 0.265625q0.625 0.265625 0.9375 0.703125q0.3125 0.4375 0.4375 1.046875q0.078125 0.390625 0.078125 1.359375l0 5.109375l-1.40625 0l0 -5.046875q0 -0.859375 -0.171875 -1.28125q-0.15625 -0.4375 -0.578125 -0.6875q-0.40625 -0.25 -0.96875 -0.25q-0.90625 0 -1.5625 0.578125q-0.640625 0.5625 -0.640625 2.15625l0 4.53125l-1.40625 0zm11.9609375 -1.265625l0.203125 1.25q-0.59375 0.125 -1.0625 0.125q-0.765625 0 -1.1875 -0.234375q-0.421875 -0.25 -0.59375 -0.640625q-0.171875 -0.40625 -0.171875 -1.671875l0 -4.765625l-1.03125 0l0 -1.09375l1.03125 0l0 -2.0625l1.40625 -0.84375l0 2.90625l1.40625 0l0 1.09375l-1.40625 0l0 4.84375q0 0.609375 0.0625 0.78125q0.078125 0.171875 0.25 0.28125q0.171875 0.09375 0.484375 0.09375q0.234375 0 0.609375 -0.0625zm6.7890625 0.234375q-0.78125 0.671875 -1.5 0.953125q-0.71875 0.265625 -1.546875 0.265625q-1.375 0 -2.109375 -0.671875q-0.734375 -0.671875 -0.734375 -1.703125q0 -0.609375 0.28125 -1.109375q0.28125 -0.515625 0.71875 -0.8125q0.453125 -0.3125 1.015625 -0.46875q0.421875 -0.109375 1.25 -0.203125q1.703125 -0.203125 2.515625 -0.484375q0 -0.296875 0 -0.375q0 -0.859375 -0.390625 -1.203125q-0.546875 -0.484375 -1.609375 -0.484375q-0.984375 0 -1.46875 0.359375q-0.46875 0.34375 -0.6875 1.21875l-1.375 -0.1875q0.1875 -0.875 0.609375 -1.421875q0.4375 -0.546875 1.25 -0.828125q0.8125 -0.296875 1.875 -0.296875q1.0625 0 1.71875 0.25q0.671875 0.25 0.984375 0.625q0.3125 0.375 0.4375 0.953125q0.078125 0.359375 0.078125 1.296875l0 1.875q0 1.96875 0.078125 2.484375q0.09375 0.515625 0.359375 1.0l-1.46875 0q-0.21875 -0.4375 -0.28125 -1.03125zm-0.109375 -3.140625q-0.765625 0.3125 -2.296875 0.53125q-0.875 0.125 -1.234375 0.28125q-0.359375 0.15625 -0.5625 0.46875q-0.1875 0.296875 -0.1875 0.65625q0 0.5625 0.421875 0.9375q0.4375 0.375 1.25 0.375q0.8125 0 1.4375 -0.34375q0.640625 -0.359375 0.9375 -0.984375q0.234375 -0.46875 0.234375 -1.40625l0 -0.515625zm3.6015625 4.171875l0 -8.296875l1.25 0l0 1.15625q0.390625 -0.609375 1.03125 -0.96875q0.65625 -0.375 1.484375 -0.375q0.921875 0 1.515625 0.390625q0.59375 0.375 0.828125 1.0625q0.984375 -1.453125 2.5625 -1.453125q1.234375 0 1.890625 0.6875q0.671875 0.671875 0.671875 2.09375l0 5.703125l-1.390625 0l0 -5.234375q0 -0.84375 -0.140625 -1.203125q-0.140625 -0.375 -0.5 -0.59375q-0.359375 -0.234375 -0.84375 -0.234375q-0.875 0 -1.453125 0.578125q-0.578125 0.578125 -0.578125 1.859375l0 4.828125l-1.40625 0l0 -5.390625q0 -0.9375 -0.34375 -1.40625q-0.34375 -0.46875 -1.125 -0.46875q-0.59375 0 -1.09375 0.3125q-0.5 0.3125 -0.734375 0.921875q-0.21875 0.59375 -0.21875 1.71875l0 4.3125l-1.40625 0zm13.328125 -9.84375l0 -1.609375l1.40625 0l0 1.609375l-1.40625 0zm0 9.84375l0 -8.296875l1.40625 0l0 8.296875l-1.40625 0zm3.5546875 0l0 -8.296875l1.265625 0l0 1.171875q0.90625 -1.359375 2.640625 -1.359375q0.75 0 1.375 0.265625q0.625 0.265625 0.9375 0.703125q0.3125 0.4375 0.4375 1.046875q0.078125 0.390625 0.078125 1.359375l0 5.109375l-1.40625 0l0 -5.046875q0 -0.859375 -0.171875 -1.28125q-0.15625 -0.4375 -0.578125 -0.6875q-0.40625 -0.25 -0.96875 -0.25q-0.90625 0 -1.5625 0.578125q-0.640625 0.5625 -0.640625 2.15625l0 4.53125l-1.40625 0zm14.3046875 -1.03125q-0.78125 0.671875 -1.5 0.953125q-0.71875 0.265625 -1.546875 0.265625q-1.375 0 -2.109375 -0.671875q-0.734375 -0.671875 -0.734375 -1.703125q0 -0.609375 0.28125 -1.109375q0.28125 -0.515625 0.71875 -0.8125q0.453125 -0.3125 1.015625 -0.46875q0.421875 -0.109375 1.25 -0.203125q1.703125 -0.203125 2.515625 -0.484375q0 -0.296875 0 -0.375q0 -0.859375 -0.390625 -1.203125q-0.546875 -0.484375 -1.609375 -0.484375q-0.984375 0 -1.46875 0.359375q-0.46875 0.34375 -0.6875 1.21875l-1.375 -0.1875q0.1875 -0.875 0.609375 -1.421875q0.4375 -0.546875 1.25 -0.828125q0.8125 -0.296875 1.875 -0.296875q1.0625 0 1.71875 0.25q0.671875 0.25 0.984375 0.625q0.3125 0.375 0.4375 0.953125q0.078125 0.359375 0.078125 1.296875l0 1.875q0 1.96875 0.078125 2.484375q0.09375 0.515625 0.359375 1.0l-1.46875 0q-0.21875 -0.4375 -0.28125 -1.03125zm-0.109375 -3.140625q-0.765625 0.3125 -2.296875 0.53125q-0.875 0.125 -1.234375 0.28125q-0.359375 0.15625 -0.5625 0.46875q-0.1875 0.296875 -0.1875 0.65625q0 0.5625 0.421875 0.9375q0.4375 0.375 1.25 0.375q0.8125 0 1.4375 -0.34375q0.640625 -0.359375 0.9375 -0.984375q0.234375 -0.46875 0.234375 -1.40625l0 -0.515625zm6.6640625 2.90625l0.203125 1.25q-0.59375 0.125 -1.0625 0.125q-0.765625 0 -1.1875 -0.234375q-0.421875 -0.25 -0.59375 -0.640625q-0.171875 -0.40625 -0.171875 -1.671875l0 -4.765625l-1.03125 0l0 -1.09375l1.03125 0l0 -2.0625l1.40625 -0.84375l0 2.90625l1.40625 0l0 1.09375l-1.40625 0l0 4.84375q0 0.609375 0.0625 0.78125q0.078125 0.171875 0.25 0.28125q0.171875 0.09375 0.484375 0.09375q0.234375 0 0.609375 -0.0625zm1.3828125 -8.578125l0 -1.609375l1.4062195 0l0 1.609375l-1.4062195 0zm0 9.84375l0 -8.296875l1.4062195 0l0 8.296875l-1.4062195 0zm3.023407 -4.15625q0 -2.296875 1.28125 -3.40625q1.078125 -0.921875 2.609375 -0.921875q1.71875 0 2.796875 1.125q1.09375 1.109375 1.09375 3.09375q0 1.59375 -0.484375 2.515625q-0.484375 0.921875 -1.40625 1.4375q-0.90625 0.5 -2.0 0.5q-1.734375 0 -2.8125 -1.109375q-1.078125 -1.125 -1.078125 -3.234375zm1.453125 0q0 1.59375 0.6875 2.390625q0.703125 0.796875 1.75 0.796875q1.046875 0 1.734375 -0.796875q0.703125 -0.796875 0.703125 -2.4375q0 -1.53125 -0.703125 -2.328125q-0.6875 -0.796875 -1.734375 -0.796875q-1.046875 0 -1.75 0.796875q-0.6875 0.78125 -0.6875 2.375zm7.9765625 4.15625l0 -8.296875l1.265625 0l0 1.171875q0.90625 -1.359375 2.640625 -1.359375q0.75 0 1.375 0.265625q0.625 0.265625 0.9375 0.703125q0.3125 0.4375 0.4375 1.046875q0.078125 0.390625 0.078125 1.359375l0 5.109375l-1.40625 0l0 -5.046875q0 -0.859375 -0.171875 -1.28125q-0.15625 -0.4375 -0.578125 -0.6875q-0.40625 -0.25 -0.96875 -0.25q-0.90625 0 -1.5625 0.578125q-0.640625 0.5625 -0.640625 2.15625l0 4.53125l-1.40625 0zm16.03125 3.375q-1.171875 -1.46875 -1.984375 -3.4375q-0.796875 -1.984375 -0.796875 -4.09375q0 -1.859375 0.609375 -3.5625q0.703125 -1.96875 2.171875 -3.9375l1.0 0q-0.9375 1.625 -1.25 2.328125q-0.46875 1.078125 -0.75 2.25q-0.328125 1.453125 -0.328125 2.9375q0 3.75 2.328125 7.515625l-1.0 0zm2.640625 -3.375l0 -11.453125l1.40625 0l0 4.109375q0.984375 -1.140625 2.484375 -1.140625q0.921875 0 1.59375 0.359375q0.6875 0.359375 0.96875 1.0q0.296875 0.640625 0.296875 1.859375l0 5.265625l-1.40625 0l0 -5.265625q0 -1.046875 -0.453125 -1.53125q-0.453125 -0.484375 -1.296875 -0.484375q-0.625 0 -1.171875 0.328125q-0.546875 0.328125 -0.78125 0.890625q-0.234375 0.546875 -0.234375 1.515625l0 4.546875l-1.40625 0zm14.335968 0l0 -1.21875q-0.96875 1.40625 -2.640625 1.40625q-0.734375 0 -1.3750305 -0.28125q-0.625 -0.28125 -0.9375 -0.703125q-0.3125 -0.4375 -0.4375 -1.046875q-0.078125 -0.421875 -0.078125 -1.3125l0 -5.140625l1.40625 0l0 4.59375q0 1.109375 0.078125 1.484375q0.14065552 0.5625 0.5625305 0.875q0.4375 0.3125 1.0625 0.3125q0.640625 0 1.1875 -0.3125q0.5625 -0.328125 0.78125 -0.890625q0.234375 -0.5625 0.234375 -1.625l0 -4.4375l1.40625 0l0 8.296875l-1.25 0zm3.4609375 0l0 -8.296875l1.25 0l0 1.15625q0.390625 -0.609375 1.03125 -0.96875q0.65625 -0.375 1.484375 -0.375q0.921875 0 1.515625 0.390625q0.59375 0.375 0.828125 1.0625q0.984375 -1.453125 2.5625 -1.453125q1.234375 0 1.890625 0.6875q0.671875 0.671875 0.671875 2.09375l0 5.703125l-1.390625 0l0 -5.234375q0 -0.84375 -0.140625 -1.203125q-0.140625 -0.375 -0.5 -0.59375q-0.359375 -0.234375 -0.84375 -0.234375q-0.875 0 -1.453125 0.578125q-0.578125 0.578125 -0.578125 1.859375l0 4.828125l-1.40625 0l0 -5.390625q0 -0.9375 -0.34375 -1.40625q-0.34375 -0.46875 -1.125 -0.46875q-0.59375 0 -1.09375 0.3125q-0.5 0.3125 -0.734375 0.921875q-0.21875 0.59375 -0.21875 1.71875l0 4.3125l-1.40625 0zm18.734375 -1.03125q-0.78125 0.671875 -1.5 0.953125q-0.71875 0.265625 -1.546875 0.265625q-1.375 0 -2.109375 -0.671875q-0.734375 -0.671875 -0.734375 -1.703125q0 -0.609375 0.28125 -1.109375q0.28125 -0.515625 0.71875 -0.8125q0.453125 -0.3125 1.015625 -0.46875q0.421875 -0.109375 1.25 -0.203125q1.703125 -0.203125 2.515625 -0.484375q0 -0.296875 0 -0.375q0 -0.859375 -0.390625 -1.203125q-0.546875 -0.484375 -1.609375 -0.484375q-0.984375 0 -1.46875 0.359375q-0.46875 0.34375 -0.6875 1.21875l-1.375 -0.1875q0.1875 -0.875 0.609375 -1.421875q0.4375 -0.546875 1.25 -0.828125q0.8125 -0.296875 1.875 -0.296875q1.0625 0 1.71875 0.25q0.671875 0.25 0.984375 0.625q0.3125 0.375 0.4375 0.953125q0.078125 0.359375 0.078125 1.296875l0 1.875q0 1.96875 0.078125 2.484375q0.09375 0.515625 0.359375 1.0l-1.46875 0q-0.21875 -0.4375 -0.28125 -1.03125zm-0.109375 -3.140625q-0.765625 0.3125 -2.296875 0.53125q-0.875 0.125 -1.234375 0.28125q-0.359375 0.15625 -0.5625 0.46875q-0.1875 0.296875 -0.1875 0.65625q0 0.5625 0.421875 0.9375q0.4375 0.375 1.25 0.375q0.8125 0 1.4375 -0.34375q0.640625 -0.359375 0.9375 -0.984375q0.234375 -0.46875 0.234375 -1.40625l0 -0.515625zm3.6015625 4.171875l0 -8.296875l1.265625 0l0 1.171875q0.90625 -1.359375 2.640625 -1.359375q0.75 0 1.375 0.265625q0.625 0.265625 0.9375 0.703125q0.3125 0.4375 0.4375 1.046875q0.078125 0.390625 0.078125 1.359375l0 5.109375l-1.40625 0l0 -5.046875q0 -0.859375 -0.171875 -1.28125q-0.15625 -0.4375 -0.578125 -0.6875q-0.40625 -0.25 -0.96875 -0.25q-0.90625 0 -1.5625 0.578125q-0.640625 0.5625 -0.640625 2.15625l0 4.53125l-1.40625 0zm7.8359375 0.203125l3.328125 -11.859375l1.125 0l-3.3125 11.859375l-1.140625 0zm5.5078125 -0.203125l0 -11.453125l1.40625 0l0 4.109375q0.984375 -1.140625 2.484375 -1.140625q0.921875 0 1.59375 0.359375q0.6875 0.359375 0.96875 1.0q0.296875 0.640625 0.296875 1.859375l0 5.265625l-1.40625 0l0 -5.265625q0 -1.046875 -0.453125 -1.53125q-0.453125 -0.484375 -1.296875 -0.484375q-0.625 0 -1.171875 0.328125q-0.546875 0.328125 -0.78125 0.890625q-0.234375 0.546875 -0.234375 1.515625l0 4.546875l-1.40625 0zm8.3671875 -4.15625q0 -2.296875 1.28125 -3.40625q1.078125 -0.921875 2.609375 -0.921875q1.71875 0 2.796875 1.125q1.09375 1.109375 1.09375 3.09375q0 1.59375 -0.484375 2.515625q-0.484375 0.921875 -1.40625 1.4375q-0.90625 0.5 -2.0 0.5q-1.734375 0 -2.8125 -1.109375q-1.078125 -1.125 -1.078125 -3.234375zm1.453125 0q0 1.59375 0.6875 2.390625q0.703125 0.796875 1.75 0.796875q1.046875 0 1.734375 -0.796875q0.703125 -0.796875 0.703125 -2.4375q0 -1.53125 -0.703125 -2.328125q-0.6875 -0.796875 -1.734375 -0.796875q-1.046875 0 -1.75 0.796875q-0.6875 0.78125 -0.6875 2.375zm7.4140625 1.671875l1.390625 -0.21875q0.109375 0.84375 0.640625 1.296875q0.546875 0.4375 1.5 0.4375q0.96875 0 1.4375 -0.390625q0.46875 -0.40625 0.46875 -0.9375q0 -0.46875 -0.40625 -0.75q-0.296875 -0.1875 -1.4375 -0.46875q-1.546875 -0.390625 -2.15625 -0.671875q-0.59375 -0.296875 -0.90625 -0.796875q-0.296875 -0.5 -0.296875 -1.109375q0 -0.5625 0.25 -1.03125q0.25 -0.46875 0.6875 -0.78125q0.328125 -0.25 0.890625 -0.40625q0.578125 -0.171875 1.21875 -0.171875q0.984375 0 1.71875 0.28125q0.734375 0.28125 1.078125 0.765625q0.359375 0.46875 0.5 1.28125l-1.375 0.1875q-0.09375 -0.640625 -0.546875 -1.0q-0.453125 -0.359375 -1.265625 -0.359375q-0.96875 0 -1.390625 0.328125q-0.40625 0.3125 -0.40625 0.734375q0 0.28125 0.171875 0.5q0.171875 0.21875 0.53125 0.375q0.21875 0.078125 1.25 0.359375q1.484375 0.390625 2.078125 0.65625q0.59375 0.25 0.921875 0.734375q0.34375 0.484375 0.34375 1.203125q0 0.703125 -0.421875 1.328125q-0.40625 0.609375 -1.1875 0.953125q-0.765625 0.34375 -1.734375 0.34375q-1.625 0 -2.46875 -0.671875q-0.84375 -0.671875 -1.078125 -2.0zm11.625 1.21875l0.203125 1.25q-0.59375 0.125 -1.0625 0.125q-0.765625 0 -1.1875 -0.234375q-0.421875 -0.25 -0.59375 -0.640625q-0.171875 -0.40625 -0.171875 -1.671875l0 -4.765625l-1.03125 0l0 -1.09375l1.03125 0l0 -2.0625l1.40625 -0.84375l0 2.90625l1.40625 0l0 1.09375l-1.40625 0l0 4.84375q0 0.609375 0.0625 0.78125q0.078125 0.171875 0.25 0.28125q0.171875 0.09375 0.484375 0.09375q0.234375 0 0.609375 -0.0625zm2.3046875 4.640625l-1.015625 0q2.34375 -3.765625 2.34375 -7.515625q0 -1.46875 -0.34375 -2.921875q-0.265625 -1.171875 -0.734375 -2.25q-0.3125 -0.703125 -1.265625 -2.34375l1.015625 0q1.46875 1.96875 2.171875 3.9375q0.59375 1.703125 0.59375 3.5625q0 2.109375 -0.8125 4.09375q-0.796875 1.96875 -1.953125 3.4375z" fill-rule="nonzero"/><path fill="#cccccc" d="m214.53543 407.63522l0 0c0 -1.6003418 1.297348 -2.897705 2.897705 -2.897705l525.1338 0c0.76849365 0 1.5055542 0.30529785 2.0489502 0.84872437c0.54345703 0.5434265 0.84869385 1.2804565 0.84869385 2.0489807l0 11.590454c0 1.6003418 -1.2973022 2.8976746 -2.897644 2.8976746l-525.1338 0c-1.600357 0 -2.897705 -1.2973328 -2.897705 -2.8976746z" fill-rule="evenodd"/><path fill="#000000" d="m444.39453 419.29044l4.40625 -11.453125l1.640625 0l4.6875 11.453125l-1.734375 0l-1.328125 -3.46875l-4.796875 0l-1.25 3.46875l-1.625 0zm3.3125 -4.703125l3.890625 0l-1.203125 -3.171875q-0.546875 -1.453125 -0.8125 -2.375q-0.21875 1.09375 -0.609375 2.1875l-1.265625 3.359375zm8.421875 4.703125l0 -11.453125l1.40625 0l0 11.453125l-1.40625 0zm3.5859375 -9.84375l0 -1.609375l1.40625 0l0 1.609375l-1.40625 0zm0 9.84375l0 -8.296875l1.40625 0l0 8.296875l-1.40625 0zm3.2890625 0.6875l1.375 0.203125q0.078125 0.640625 0.46875 0.921875q0.53125 0.390625 1.4375 0.390625q0.96875 0 1.5 -0.390625q0.53125 -0.390625 0.71875 -1.09375q0.109375 -0.421875 0.109375 -1.8125q-0.921875 1.09375 -2.296875 1.09375q-1.71875 0 -2.65625 -1.234375q-0.9375 -1.234375 -0.9375 -2.96875q0 -1.1875 0.421875 -2.1875q0.4375 -1.0 1.25 -1.546875q0.828125 -0.546875 1.921875 -0.546875q1.46875 0 2.421875 1.1875l0 -1.0l1.296875 0l0 7.171875q0 1.9375 -0.390625 2.75q-0.390625 0.8125 -1.25 1.28125q-0.859375 0.46875 -2.109375 0.46875q-1.484375 0 -2.40625 -0.671875q-0.90625 -0.671875 -0.875 -2.015625zm1.171875 -4.984375q0 1.625 0.640625 2.375q0.65625 0.75 1.625 0.75q0.96875 0 1.625 -0.734375q0.65625 -0.75 0.65625 -2.34375q0 -1.53125 -0.671875 -2.296875q-0.671875 -0.78125 -1.625 -0.78125q-0.9375 0 -1.59375 0.765625q-0.65625 0.765625 -0.65625 2.265625zm7.992157 4.296875l0 -8.296875l1.265625 0l0 1.171875q0.90625 -1.359375 2.640625 -1.359375q0.75 0 1.375 0.265625q0.625 0.265625 0.9375 0.703125q0.3125 0.4375 0.4375 1.046875q0.078125 0.390625 0.078125 1.359375l0 5.109375l-1.40625 0l0 -5.046875q0 -0.859375 -0.171875 -1.28125q-0.15625 -0.4375 -0.578125 -0.6875q-0.40625 -0.25 -0.96875 -0.25q-0.90625 0 -1.5625 0.578125q-0.640625 0.5625 -0.640625 2.15625l0 4.53125l-1.40625 0zm8.8984375 0l0 -8.296875l1.25 0l0 1.15625q0.390625 -0.609375 1.03125 -0.96875q0.65625 -0.375 1.484375 -0.375q0.921875 0 1.515625 0.390625q0.59375 0.375 0.828125 1.0625q0.984375 -1.453125 2.5625 -1.453125q1.234375 0 1.890625 0.6875q0.671875 0.671875 0.671875 2.09375l0 5.703125l-1.390625 0l0 -5.234375q0 -0.84375 -0.140625 -1.203125q-0.140625 -0.375 -0.5 -0.59375q-0.359375 -0.234375 -0.84375 -0.234375q-0.875 0 -1.453125 0.578125q-0.578125 0.578125 -0.578125 1.859375l0 4.828125l-1.40625 0l0 -5.390625q0 -0.9375 -0.34375 -1.40625q-0.34375 -0.46875 -1.125 -0.46875q-0.59375 0 -1.09375 0.3125q-0.5 0.3125 -0.734375 0.921875q-0.21875 0.59375 -0.21875 1.71875l0 4.3125l-1.40625 0zm19.0 -2.671875l1.453125 0.171875q-0.34375 1.28125 -1.28125 1.984375q-0.921875 0.703125 -2.359375 0.703125q-1.828125 0 -2.890625 -1.125q-1.0625 -1.125 -1.0625 -3.140625q0 -2.09375 1.078125 -3.25q1.078125 -1.15625 2.796875 -1.15625q1.65625 0 2.703125 1.140625q1.0625 1.125 1.0625 3.171875q0 0.125 0 0.375l-6.1875 0q0.078125 1.375 0.765625 2.109375q0.703125 0.71875 1.734375 0.71875q0.78125 0 1.328125 -0.40625q0.546875 -0.40625 0.859375 -1.296875zm-4.609375 -2.28125l4.625 0q-0.09375 -1.046875 -0.53125 -1.5625q-0.671875 -0.8125 -1.734375 -0.8125q-0.96875 0 -1.640625 0.65625q-0.65625 0.640625 -0.71875 1.71875zm7.8359375 4.953125l0 -8.296875l1.265625 0l0 1.171875q0.90625 -1.359375 2.640625 -1.359375q0.75 0 1.375 0.265625q0.625 0.265625 0.9375 0.703125q0.3125 0.4375 0.4375 1.046875q0.078125 0.390625 0.078125 1.359375l0 5.109375l-1.40625 0l0 -5.046875q0 -0.859375 -0.171875 -1.28125q-0.15625 -0.4375 -0.578125 -0.6875q-0.40625 -0.25 -0.96875 -0.25q-0.90625 0 -1.5625 0.578125q-0.640625 0.5625 -0.640625 2.15625l0 4.53125l-1.40625 0zm11.960968 -1.265625l0.203125 1.25q-0.59375 0.125 -1.0625 0.125q-0.765625 0 -1.1875 -0.234375q-0.421875 -0.25 -0.59375 -0.640625q-0.171875 -0.40625 -0.171875 -1.671875l0 -4.765625l-1.0312805 0l0 -1.09375l1.0312805 0l0 -2.0625l1.40625 -0.84375l0 2.90625l1.40625 0l0 1.09375l-1.40625 0l0 4.84375q0 0.609375 0.0625 0.78125q0.078125 0.171875 0.25 0.28125q0.171875 0.09375 0.484375 0.09375q0.234375 0 0.609375 -0.0625z" fill-rule="nonzero"/><path fill="#cccccc" d="m214.53543 447.63522l0 0c0 -1.6003418 1.297348 -2.897705 2.897705 -2.897705l525.1338 0c0.76849365 0 1.5055542 0.30529785 2.0489502 0.84872437c0.54345703 0.5434265 0.84869385 1.2804565 0.84869385 2.0489807l0 11.590454c0 1.6003418 -1.2973022 2.8976746 -2.897644 2.8976746l-525.1338 0c-1.600357 0 -2.897705 -1.2973328 -2.897705 -2.8976746z" fill-rule="evenodd"/><path fill="#000000" d="m452.33203 459.29044l0 -11.453125l4.328125 0q1.140625 0 1.734375 0.109375q0.84375 0.140625 1.40625 0.53125q0.578125 0.390625 0.921875 1.109375q0.359375 0.703125 0.359375 1.5625q0 1.453125 -0.9375 2.46875q-0.921875 1.015625 -3.359375 1.015625l-2.9375 0l0 4.65625l-1.515625 0zm1.515625 -6.015625l2.96875 0q1.46875 0 2.078125 -0.546875q0.625 -0.546875 0.625 -1.53125q0 -0.71875 -0.375 -1.234375q-0.359375 -0.515625 -0.953125 -0.671875q-0.375 -0.109375 -1.40625 -0.109375l-2.9375 0l0 4.09375zm8.96875 6.015625l0 -8.296875l1.265625 0l0 1.25q0.484375 -0.875 0.890625 -1.15625q0.40625 -0.28125 0.90625 -0.28125q0.703125 0 1.4375 0.453125l-0.484375 1.296875q-0.515625 -0.296875 -1.03125 -0.296875q-0.453125 0 -0.828125 0.28125q-0.359375 0.265625 -0.515625 0.765625q-0.234375 0.75 -0.234375 1.640625l0 4.34375l-1.40625 0zm4.8125 -4.15625q0 -2.296875 1.28125 -3.40625q1.078125 -0.921875 2.6093445 -0.921875q1.71875 0 2.796875 1.125q1.09375 1.109375 1.09375 3.09375q0 1.59375 -0.484375 2.515625q-0.484375 0.921875 -1.40625 1.4375q-0.90625 0.5 -2.0 0.5q-1.7343445 0 -2.8124695 -1.109375q-1.078125 -1.125 -1.078125 -3.234375zm1.453125 0q0 1.59375 0.6875 2.390625q0.703125 0.796875 1.7499695 0.796875q1.046875 0 1.734375 -0.796875q0.703125 -0.796875 0.703125 -2.4375q0 -1.53125 -0.703125 -2.328125q-0.6875 -0.796875 -1.734375 -0.796875q-1.0468445 0 -1.7499695 0.796875q-0.6875 0.78125 -0.6875 2.375zm8.304657 4.15625l0 -7.203125l-1.234375 0l0 -1.09375l1.234375 0l0 -0.890625q0 -0.828125 0.15625 -1.234375q0.203125 -0.546875 0.703125 -0.890625q0.515625 -0.34375 1.4375 -0.34375q0.59375 0 1.3125 0.140625l-0.203125 1.234375q-0.4375 -0.078125 -0.828125 -0.078125q-0.640625 0 -0.90625 0.28125q-0.265625 0.265625 -0.265625 1.015625l0 0.765625l1.609375 0l0 1.09375l-1.609375 0l0 7.203125l-1.40625 0zm4.1171875 -9.84375l0 -1.609375l1.40625 0l0 1.609375l-1.40625 0zm0 9.84375l0 -8.296875l1.40625 0l0 8.296875l-1.40625 0zm3.5234375 0l0 -11.453125l1.40625 0l0 11.453125l-1.40625 0zm3.5859375 -9.84375l0 -1.609375l1.40625 0l0 1.609375l-1.40625 0zm0 9.84375l0 -8.296875l1.40625 0l0 8.296875l-1.40625 0zm3.5546875 0l0 -8.296875l1.265625 0l0 1.171875q0.90625 -1.359375 2.640625 -1.359375q0.75 0 1.375 0.265625q0.625 0.265625 0.9375 0.703125q0.3125 0.4375 0.4375 1.046875q0.078125 0.390625 0.078125 1.359375l0 5.109375l-1.40625 0l0 -5.046875q0 -0.859375 -0.171875 -1.28125q-0.15625 -0.4375 -0.578125 -0.6875q-0.40625 -0.25 -0.96875 -0.25q-0.90625 0 -1.5625 0.578125q-0.640625 0.5625 -0.640625 2.15625l0 4.53125l-1.40625 0zm8.6328125 0.6875l1.375 0.203125q0.078125 0.640625 0.46875 0.921875q0.53125 0.390625 1.4375 0.390625q0.96875 0 1.5 -0.390625q0.53125 -0.390625 0.71875 -1.09375q0.109375 -0.421875 0.109375 -1.8125q-0.921875 1.09375 -2.296875 1.09375q-1.71875 0 -2.65625 -1.234375q-0.9375 -1.234375 -0.9375 -2.96875q0 -1.1875 0.421875 -2.1875q0.4375 -1.0 1.25 -1.546875q0.828125 -0.546875 1.921875 -0.546875q1.46875 0 2.421875 1.1875l0 -1.0l1.296875 0l0 7.171875q0 1.9375 -0.390625 2.75q-0.390625 0.8125 -1.25 1.28125q-0.859375 0.46875 -2.109375 0.46875q-1.484375 0 -2.40625 -0.671875q-0.90625 -0.671875 -0.875 -2.015625zm1.171875 -4.984375q0 1.625 0.640625 2.375q0.65625 0.75 1.625 0.75q0.96875 0 1.625 -0.734375q0.65625 -0.75 0.65625 -2.34375q0 -1.53125 -0.671875 -2.296875q-0.671875 -0.78125 -1.625 -0.78125q-0.9375 0 -1.59375 0.765625q-0.65625 0.765625 -0.65625 2.265625z" fill-rule="nonzero"/><path fill="#cccccc" d="m214.53543 405.65115l0 0c0 -6.7724915 5.490204 -12.262695 12.262711 -12.262695l506.4037 0c3.2522583 0 6.371338 1.2919617 8.671082 3.5916443c2.2996826 2.2997131 3.5916138 5.4187927 3.5916138 8.671051l0 49.049377c0 6.772522 -5.4901733 12.262726 -12.262695 12.262726l-506.4037 0c-6.7725067 0 -12.262711 -5.490204 -12.262711 -12.262726z" fill-rule="evenodd"/><path fill="#000000" d="m416.79297 426.5046l0 1.625l-1.5 0l0 -1.28125q0 -1.046875 0.25 -1.515625q0.328125 -0.625 1.03125 -0.953125l0.34375 0.546875q-0.421875 0.1875 -0.625 0.546875q-0.203125 0.34375 -0.234375 1.03125l0.734375 0zm2.421875 0l0 1.625l-1.5 0l0 -1.28125q0 -1.046875 0.25 -1.515625q0.328125 -0.625 1.03125 -0.953125l0.34375 0.546875q-0.421875 0.1875 -0.625 0.546875q-0.203125 0.34375 -0.234375 1.03125l0.734375 0zm1.984375 9.53125l0 -11.453125l4.328125 0q1.140625 0 1.734375 0.109375q0.84375 0.140625 1.40625 0.53125q0.578125 0.390625 0.921875 1.109375q0.359375 0.703125 0.359375 1.5625q0 1.453125 -0.9375 2.46875q-0.921875 1.015625 -3.359375 1.015625l-2.9375 0l0 4.65625l-1.515625 0zm1.515625 -6.015625l2.96875 0q1.46875 0 2.078125 -0.546875q0.625 -0.546875 0.625 -1.53125q0 -0.71875 -0.375 -1.234375q-0.359375 -0.515625 -0.953125 -0.671875q-0.375 -0.109375 -1.40625 -0.109375l-2.9375 0l0 4.09375zm14.390625 4.984375q-0.78125 0.671875 -1.5 0.953125q-0.71875 0.265625 -1.546875 0.265625q-1.375 0 -2.109375 -0.671875q-0.734375 -0.671875 -0.734375 -1.703125q0 -0.609375 0.28125 -1.109375q0.28125 -0.515625 0.71875 -0.8125q0.453125 -0.3125 1.015625 -0.46875q0.421875 -0.109375 1.25 -0.203125q1.703125 -0.203125 2.515625 -0.484375q0 -0.296875 0 -0.375q0 -0.859375 -0.390625 -1.203125q-0.546875 -0.484375 -1.609375 -0.484375q-0.984375 0 -1.46875 0.359375q-0.46875 0.34375 -0.6875 1.21875l-1.375 -0.1875q0.1875 -0.875 0.609375 -1.421875q0.4375 -0.546875 1.25 -0.828125q0.8125 -0.296875 1.875 -0.296875q1.0625 0 1.71875 0.25q0.671875 0.25 0.984375 0.625q0.3125 0.375 0.4375 0.953125q0.078125 0.359375 0.078125 1.296875l0 1.875q0 1.96875 0.078125 2.484375q0.09375 0.515625 0.359375 1.0l-1.46875 0q-0.21875 -0.4375 -0.28125 -1.03125zm-0.109375 -3.140625q-0.765625 0.3125 -2.296875 0.53125q-0.875 0.125 -1.234375 0.28125q-0.359375 0.15625 -0.5625 0.46875q-0.1875 0.296875 -0.1875 0.65625q0 0.5625 0.421875 0.9375q0.4375 0.375 1.25 0.375q0.8125 0 1.4375 -0.34375q0.640625 -0.359375 0.9375 -0.984375q0.234375 -0.46875 0.234375 -1.40625l0 -0.515625zm3.5390625 7.375l-0.15625 -1.328125q0.453125 0.125 0.796875 0.125q0.46875 0 0.75 -0.15625q0.28125 -0.15625 0.46875 -0.4375q0.125 -0.203125 0.421875 -1.046875q0.046875 -0.109375 0.125 -0.34375l-3.140625 -8.3125l1.515625 0l1.71875 4.796875q0.34375 0.921875 0.609375 1.921875q0.234375 -0.96875 0.578125 -1.890625l1.765625 -4.828125l1.40625 0l-3.15625 8.4375q-0.5 1.375 -0.78125 1.890625q-0.375 0.6875 -0.859375 1.015625q-0.484375 0.328125 -1.15625 0.328125q-0.40625 0 -0.90625 -0.171875zm8.03125 -3.203125l0 -11.453125l1.40625 0l0 11.453125l-1.40625 0zm3.0546875 -4.15625q0 -2.296875 1.28125 -3.40625q1.078125 -0.921875 2.609375 -0.921875q1.71875 0 2.796875 1.125q1.09375 1.109375 1.09375 3.09375q0 1.59375 -0.484375 2.515625q-0.484375 0.921875 -1.40625 1.4375q-0.90625 0.5 -2.0 0.5q-1.734375 0 -2.8125 -1.109375q-1.078125 -1.125 -1.078125 -3.234375zm1.453125 0q0 1.59375 0.6875 2.390625q0.703125 0.796875 1.75 0.796875q1.046875 0 1.734375 -0.796875q0.703125 -0.796875 0.703125 -2.4375q0 -1.53125 -0.703125 -2.328125q-0.6875 -0.796875 -1.734375 -0.796875q-1.046875 0 -1.75 0.796875q-0.6875 0.78125 -0.6875 2.375zm13.3828125 3.125q-0.78125 0.671875 -1.5 0.953125q-0.71875 0.265625 -1.546875 0.265625q-1.375 0 -2.109375 -0.671875q-0.734375 -0.671875 -0.734375 -1.703125q0 -0.609375 0.28125 -1.109375q0.28125 -0.515625 0.71875 -0.8125q0.453125 -0.3125 1.015625 -0.46875q0.421875 -0.109375 1.25 -0.203125q1.703125 -0.203125 2.515625 -0.484375q0 -0.296875 0 -0.375q0 -0.859375 -0.390625 -1.203125q-0.546875 -0.484375 -1.609375 -0.484375q-0.984375 0 -1.46875 0.359375q-0.46875 0.34375 -0.6875 1.21875l-1.375 -0.1875q0.1875 -0.875 0.609375 -1.421875q0.4375 -0.546875 1.25 -0.828125q0.8125 -0.296875 1.875 -0.296875q1.0625 0 1.71875 0.25q0.671875 0.25 0.984375 0.625q0.3125 0.375 0.4375 0.953125q0.078125 0.359375 0.078125 1.296875l0 1.875q0 1.96875 0.078125 2.484375q0.09375 0.515625 0.359375 1.0l-1.46875 0q-0.21875 -0.4375 -0.28125 -1.03125zm-0.109375 -3.140625q-0.765625 0.3125 -2.296875 0.53125q-0.875 0.125 -1.234375 0.28125q-0.359375 0.15625 -0.5625 0.46875q-0.1875 0.296875 -0.1875 0.65625q0 0.5625 0.421875 0.9375q0.4375 0.375 1.25 0.375q0.8125 0 1.4375 -0.34375q0.640625 -0.359375 0.9375 -0.984375q0.234375 -0.46875 0.234375 -1.40625l0 -0.515625zm8.976532 4.171875l0 -1.046875q-0.78125 1.234375 -2.3124695 1.234375q-1.0 0 -1.828125 -0.546875q-0.828125 -0.546875 -1.296875 -1.53125q-0.453125 -0.984375 -0.453125 -2.25q0 -1.25 0.40625 -2.25q0.421875 -1.015625 1.25 -1.546875q0.828125 -0.546875 1.859375 -0.546875q0.75 0 1.3280945 0.3125q0.59375 0.3125 0.953125 0.828125l0 -4.109375l1.40625 0l0 11.453125l-1.3125 0zm-4.4374695 -4.140625q0 1.59375 0.671875 2.390625q0.671875 0.78125 1.578125 0.78125q0.921875 0 1.5624695 -0.75q0.65625 -0.765625 0.65625 -2.3125q0 -1.703125 -0.65625 -2.5q-0.6562195 -0.796875 -1.6249695 -0.796875q-0.9375 0 -1.5625 0.765625q-0.625 0.765625 -0.625 2.421875zm7.585907 -5.796875l0 -1.640625l1.5 0l0 1.296875q0 1.046875 -0.234375 1.5q-0.34375 0.640625 -1.046875 0.953125l-0.34375 -0.546875q0.421875 -0.171875 0.625 -0.546875q0.203125 -0.375 0.234375 -1.015625l-0.734375 0zm2.421875 0l0 -1.640625l1.5 0l0 1.296875q0 1.046875 -0.234375 1.5q-0.34375 0.640625 -1.046875 0.953125l-0.34375 -0.546875q0.421875 -0.171875 0.625 -0.546875q0.203125 -0.375 0.234375 -1.015625l-0.734375 0zm13.1328125 8.90625q-0.78125 0.671875 -1.5 0.953125q-0.71875 0.265625 -1.546875 0.265625q-1.375 0 -2.109375 -0.671875q-0.734375 -0.671875 -0.734375 -1.703125q0 -0.609375 0.28125 -1.109375q0.28125 -0.515625 0.71875 -0.8125q0.453125 -0.3125 1.015625 -0.46875q0.421875 -0.109375 1.25 -0.203125q1.703125 -0.203125 2.515625 -0.484375q0 -0.296875 0 -0.375q0 -0.859375 -0.390625 -1.203125q-0.546875 -0.484375 -1.609375 -0.484375q-0.984375 0 -1.46875 0.359375q-0.46875 0.34375 -0.6875 1.21875l-1.375 -0.1875q0.1875 -0.875 0.609375 -1.421875q0.4375 -0.546875 1.25 -0.828125q0.8125 -0.296875 1.875 -0.296875q1.0625 0 1.71875 0.25q0.671875 0.25 0.984375 0.625q0.3125 0.375 0.4375 0.953125q0.078125 0.359375 0.078125 1.296875l0 1.875q0 1.96875 0.078125 2.484375q0.09375 0.515625 0.359375 1.0l-1.46875 0q-0.21875 -0.4375 -0.28125 -1.03125zm-0.109375 -3.140625q-0.765625 0.3125 -2.296875 0.53125q-0.875 0.125 -1.234375 0.28125q-0.359375 0.15625 -0.5625 0.46875q-0.1875 0.296875 -0.1875 0.65625q0 0.5625 0.421875 0.9375q0.4375 0.375 1.25 0.375q0.8125 0 1.4375 -0.34375q0.640625 -0.359375 0.9375 -0.984375q0.234375 -0.46875 0.234375 -1.40625l0 -0.515625zm3.6015625 4.171875l0 -8.296875l1.265625 0l0 1.171875q0.90625 -1.359375 2.640625 -1.359375q0.75 0 1.375 0.265625q0.625 0.265625 0.9375 0.703125q0.3125 0.4375 0.4375 1.046875q0.078125 0.390625 0.078125 1.359375l0 5.109375l-1.40625 0l0 -5.046875q0 -0.859375 -0.171875 -1.28125q-0.15625 -0.4375 -0.578125 -0.6875q-0.40625 -0.25 -0.96875 -0.25q-0.90625 0 -1.5625 0.578125q-0.640625 0.5625 -0.640625 2.15625l0 4.53125l-1.40625 0zm14.3046875 -1.03125q-0.78125 0.671875 -1.5 0.953125q-0.71875 0.265625 -1.546875 0.265625q-1.375 0 -2.109375 -0.671875q-0.734375 -0.671875 -0.734375 -1.703125q0 -0.609375 0.28125 -1.109375q0.28125 -0.515625 0.71875 -0.8125q0.453125 -0.3125 1.015625 -0.46875q0.421875 -0.109375 1.25 -0.203125q1.703125 -0.203125 2.515625 -0.484375q0 -0.296875 0 -0.375q0 -0.859375 -0.390625 -1.203125q-0.546875 -0.484375 -1.609375 -0.484375q-0.984375 0 -1.46875 0.359375q-0.46875 0.34375 -0.6875 1.21875l-1.375 -0.1875q0.1875 -0.875 0.609375 -1.421875q0.4375 -0.546875 1.25 -0.828125q0.8125 -0.296875 1.875 -0.296875q1.0625 0 1.71875 0.25q0.6719055 0.25 0.9844055 0.625q0.3125 0.375 0.4375 0.953125q0.078125 0.359375 0.078125 1.296875l0 1.875q0 1.96875 0.078125 2.484375q0.09375 0.515625 0.359375 1.0l-1.46875 0q-0.21878052 -0.4375 -0.28128052 -1.03125zm-0.109375 -3.140625q-0.765625 0.3125 -2.296875 0.53125q-0.875 0.125 -1.234375 0.28125q-0.359375 0.15625 -0.5625 0.46875q-0.1875 0.296875 -0.1875 0.65625q0 0.5625 0.421875 0.9375q0.4375 0.375 1.25 0.375q0.8125 0 1.4375 -0.34375q0.640625 -0.359375 0.9375 -0.984375q0.234375 -0.46875 0.234375 -1.40625l0 -0.515625zm3.570343 4.171875l0 -11.453125l1.40625 0l0 11.453125l-1.40625 0zm3.5234375 3.203125l-0.15625 -1.328125q0.453125 0.125 0.796875 0.125q0.46875 0 0.75 -0.15625q0.28125 -0.15625 0.46875 -0.4375q0.125 -0.203125 0.421875 -1.046875q0.046875 -0.109375 0.125 -0.34375l-3.140625 -8.3125l1.515625 0l1.71875 4.796875q0.34375 0.921875 0.609375 1.921875q0.234375 -0.96875 0.578125 -1.890625l1.765625 -4.828125l1.40625 0l-3.15625 8.4375q-0.5 1.375 -0.78125 1.890625q-0.375 0.6875 -0.859375 1.015625q-0.484375 0.328125 -1.15625 0.328125q-0.40625 0 -0.90625 -0.171875zm7.5 -5.6875l1.390625 -0.21875q0.109375 0.84375 0.640625 1.296875q0.546875 0.4375 1.5 0.4375q0.96875 0 1.4375 -0.390625q0.46875 -0.40625 0.46875 -0.9375q0 -0.46875 -0.40625 -0.75q-0.296875 -0.1875 -1.4375 -0.46875q-1.546875 -0.390625 -2.15625 -0.671875q-0.59375 -0.296875 -0.90625 -0.796875q-0.296875 -0.5 -0.296875 -1.109375q0 -0.5625 0.25 -1.03125q0.25 -0.46875 0.6875 -0.78125q0.328125 -0.25 0.890625 -0.40625q0.578125 -0.171875 1.21875 -0.171875q0.984375 0 1.71875 0.28125q0.734375 0.28125 1.078125 0.765625q0.359375 0.46875 0.5 1.28125l-1.375 0.1875q-0.09375 -0.640625 -0.546875 -1.0q-0.453125 -0.359375 -1.265625 -0.359375q-0.96875 0 -1.390625 0.328125q-0.40625 0.3125 -0.40625 0.734375q0 0.28125 0.171875 0.5q0.171875 0.21875 0.53125 0.375q0.21875 0.078125 1.25 0.359375q1.484375 0.390625 2.078125 0.65625q0.59375 0.25 0.921875 0.734375q0.34375 0.484375 0.34375 1.203125q0 0.703125 -0.421875 1.328125q-0.40625 0.609375 -1.1875 0.953125q-0.765625 0.34375 -1.734375 0.34375q-1.625 0 -2.46875 -0.671875q-0.84375 -0.671875 -1.078125 -2.0zm8.5625 -7.359375l0 -1.609375l1.40625 0l0 1.609375l-1.40625 0zm0 9.84375l0 -8.296875l1.40625 0l0 8.296875l-1.40625 0zm2.9921875 -2.484375l1.390625 -0.21875q0.109375 0.84375 0.640625 1.296875q0.546875 0.4375 1.5 0.4375q0.96875 0 1.4375 -0.390625q0.46875 -0.40625 0.46875 -0.9375q0 -0.46875 -0.40625 -0.75q-0.296875 -0.1875 -1.4375 -0.46875q-1.546875 -0.390625 -2.15625 -0.671875q-0.59375 -0.296875 -0.90625 -0.796875q-0.296875 -0.5 -0.296875 -1.109375q0 -0.5625 0.25 -1.03125q0.25 -0.46875 0.6875 -0.78125q0.328125 -0.25 0.890625 -0.40625q0.578125 -0.171875 1.21875 -0.171875q0.984375 0 1.71875 0.28125q0.734375 0.28125 1.078125 0.765625q0.359375 0.46875 0.5 1.28125l-1.375 0.1875q-0.09375 -0.640625 -0.546875 -1.0q-0.453125 -0.359375 -1.265625 -0.359375q-0.96875 0 -1.390625 0.328125q-0.40625 0.3125 -0.40625 0.734375q0 0.28125 0.171875 0.5q0.171875 0.21875 0.53125 0.375q0.21875 0.078125 1.25 0.359375q1.484375 0.390625 2.078125 0.65625q0.59375 0.25 0.921875 0.734375q0.34375 0.484375 0.34375 1.203125q0 0.703125 -0.421875 1.328125q-0.40625 0.609375 -1.1875 0.953125q-0.765625 0.34375 -1.734375 0.34375q-1.625 0 -2.46875 -0.671875q-0.84375 -0.671875 -1.078125 -2.0z" fill-rule="nonzero"/></g></svg>